<svg xmlns="http://www.w3.org/2000/svg" xmlns:xlink="http://www.w3.org/1999/xlink" width="288" height="164" viewBox="0 0 288 164">
  <defs>
    <rect id="exp_three_neighbors-a" width="288" height="164"/>
  </defs>
  <g fill="none" fill-rule="evenodd">
    <mask id="exp_three_neighbors-b" fill="#fff">
      <use xlink:href="#exp_three_neighbors-a"/>
    </mask>
    <use fill="#FFF" xlink:href="#exp_three_neighbors-a"/>
    <g mask="url(#exp_three_neighbors-b)">
      <g transform="translate(7 9.817)">
        <g transform="translate(.205 20.202)">
          <path fill="#F8B3A0" fill-rule="nonzero" d="M124.243484,90.7612444 C129.276302,85.7284267 129.276302,77.4931911 124.243484,72.4603733 L96.8836978,45.1001956 C91.85088,40.0673778 83.6156444,40.0673778 78.5828267,45.1001956 C73.5500089,50.1330133 73.5500089,58.3682489 78.5828267,63.4010667 L105.942613,90.7612444 C110.975431,95.7936711 119.210667,95.7936711 124.243484,90.7612444 Z"/>
          <path fill="#6CB545" fill-rule="nonzero" d="M81.6835556,56.8656 L91.0749156,41.7628444 C93.2064711,42.3268267 95.2203022,43.4368 96.8836978,45.1001956 L116.855004,65.0715022 L100.934044,83.336 L96.4018489,81.22048 L84.7131022,69.5317333 L81.6835556,56.8656 Z"/>
          <path fill="#F8B3A0" fill-rule="nonzero" d="M4.03861333,90.5633422 C-0.994204444,85.5305244 -0.994204444,77.2952889 4.03861333,72.2624711 L31.3987911,44.9022933 C36.4316089,39.8694756 44.6668444,39.8694756 49.6996622,44.9022933 C54.73248,49.9351111 54.73248,58.1703467 49.6996622,63.2031644 L22.3398756,90.5633422 C17.3066667,95.59616 9.07143111,95.59616 4.03861333,90.5633422 Z"/>
          <path fill="#6CB545" fill-rule="nonzero" d="M46.5985422,56.6680889 L37.2071822,41.5653333 C35.0756267,42.1293156 33.0617956,43.2392889 31.3984,44.9026844 L11.4270933,64.8739911 L27.3480533,83.1384889 L31.8802489,81.0229689 L43.5689956,69.3342222 L46.5985422,56.6680889 Z"/>
          <path fill="#92C73E" fill-rule="nonzero" d="M77.3535644,95.6235378 L50.8553956,95.6235378 C34.86208,95.6235378 21.7762844,82.5381333 21.7762844,66.5444267 C21.7762844,50.5511111 34.8616889,37.4653156 50.8553956,37.4653156 L77.3535644,37.4653156 C93.34688,37.4653156 106.432676,50.55072 106.432676,66.5444267 C106.432676,82.5381333 93.34688,95.6235378 77.3535644,95.6235378 Z"/>
          <path fill="#F8B3A0" fill-rule="nonzero" d="M46.3134222,97.9377422 C45.2632889,97.9377422 44.2941156,97.2532978 43.9804444,96.1953422 C42.0753422,89.7768178 37.01632,86.2994489 36.9654756,86.26464 C35.8512,85.5117511 35.5586489,83.9981511 36.3115378,82.8838756 C37.0632533,81.7696 38.5764622,81.4762667 39.6923022,82.2299378 C39.95904,82.41024 46.2524089,86.7371022 48.6483556,94.8092444 C49.0312533,96.0983467 48.2963556,97.4539378 47.0072533,97.8360533 C46.7761067,97.9056711 46.5426133,97.9377422 46.3134222,97.9377422 Z"/>
          <path fill="#E6E1C5" fill-rule="nonzero" d="M39.5796622,99.8913422 L39.5417244,106.287573 C39.5417244,109.886187 42.4860089,112.830471 46.0846222,112.830471 L82.1243378,112.830471 C85.7229511,112.830471 88.6672356,109.886187 88.6672356,106.287573 L88.7051733,99.8913422 L39.5796622,99.8913422 Z"/>
          <rect width="11.341" height="53.726" x="51.302" y="112.831" fill="#E6E1C5" fill-rule="nonzero"/>
          <rect width="11.341" height="53.726" x="65.565" y="112.831" fill="#E6E1C5" fill-rule="nonzero"/>
          <g fill="#6CB545" fill-rule="nonzero" transform="translate(51.236 42.24)">
            <path d="M.225671111.00312888889L.225671111 8.10304C.225671111 9.46684444 1.88789333 10.1356444 2.83203556 9.15160889L11.4079289.215893333 11.20416.00352.225671111.00352.225671111.00312888889zM14.5336889.00312888889L14.32992.215502222 22.9054222 9.15121778C23.8499556 10.1352533 25.5117867 9.46684444 25.5117867 8.10264889L25.5117867.00273777778 14.5336889.00273777778 14.5336889.00312888889z"/>
            <polygon points="12.665 .003 12.869 .216 13.073 .003"/>
          </g>
          <path fill="#6CB545" fill-rule="nonzero" d="M67.5574044,66.9703467 L60.6515556,66.9703467 C60.1157333,66.9703467 59.6776889,66.5319111 59.6776889,65.99648 L59.6776889,39.8338844 C59.6776889,39.2980622 60.1161244,38.8600178 60.6515556,38.8600178 L67.5574044,38.8600178 C68.0932267,38.8600178 68.5312711,39.2984533 68.5312711,39.8338844 L68.5312711,65.99648 C68.5312711,66.5323022 68.0932267,66.9703467 67.5574044,66.9703467 Z"/>
          <g fill-rule="nonzero" transform="translate(37.156)">
            <g fill="#ABC0D8" transform="translate(3.52 3.129)">
              <circle cx="9.44" cy="9.439" r="9.051"/>
              <circle cx="37.418" cy="9.439" r="9.051"/>
            </g>
            <g fill="#F69B8A" transform="translate(0 15.253)">
              <circle cx="47.452" cy="6.592" r="6.331"/>
              <circle cx="6.446" cy="6.592" r="6.331"/>
            </g>
            <path fill="#F8B3A0" d="M34.2726756,43.6343111 L19.6247822,43.6343111 C12.37632,43.6343111 6.44590222,37.7038933 6.44590222,30.4554311 L6.44590222,20.8825956 C6.44590222,9.60608 15.6722133,0.379768889 26.9487289,0.379768889 C38.2252444,0.379768889 47.4515556,9.60608 47.4515556,20.8825956 L47.4515556,30.4554311 C47.4519467,37.7035022 41.5211378,43.6343111 34.2726756,43.6343111 Z"/>
            <path fill="#E48C7F" d="M20.6774756 25.0589156C19.7548444 25.0589156 19 24.3040711 19 23.38144L19 17.6774756C19 16.7548444 19.7548444 16 20.6774756 16 21.6001067 16 22.3549511 16.7548444 22.3549511 17.6774756L22.3549511 23.38144C22.3549511 24.3040711 21.6001067 25.0589156 20.6774756 25.0589156zM32.6774756 25.0589156C31.7548444 25.0589156 31 24.3040711 31 23.38144L31 17.6774756C31 16.7548444 31.7548444 16 32.6774756 16 33.6001067 16 34.3549511 16.7548444 34.3549511 17.6774756L34.3549511 23.38144C34.3549511 24.3040711 33.6001067 25.0589156 32.6774756 25.0589156z"/>
            <path fill="#F8B3A0" d="M18,21 C18,21 18.1369187,21 18.3422966,21.0684593 C19.3691865,21.3422966 22.7236936,22.2322679 23.4767462,23.8752917 L21.6283443,25.7236936 L18.0684593,25.7236936 L18.0684593,22.6430238 L18.0684593,21 L18,21 Z"/>
            <path fill="#F8B3A0" d="M30,21 C30,21 30.1369187,21 30.3422966,21.0684593 C31.3691865,21.3422966 34.7236936,22.2322679 35.4767462,23.8752917 L33.6283443,25.7236936 L30.0684593,25.7236936 L30.0684593,22.6430238 L30.0684593,21 L30,21 Z" transform="matrix(-1 0 0 1 65.477 0)"/>
            <path fill="#FFF" d="M35.2168178,28.6840889 L18.8973156,28.6840889 C17.2871111,28.6840889 15.9815822,29.9896178 15.9815822,31.6002133 C15.9815822,33.2108089 17.2871111,34.5163378 18.8973156,34.5163378 C19.2637867,34.5163378 19.6130489,34.4459378 19.9361067,34.3223467 C20.57088,35.6466489 21.9198222,36.5634133 23.4866133,36.5634133 C25.0690489,36.5634133 26.4301156,35.6282667 27.0566756,34.2820622 C27.6832356,35.6282667 29.0439111,36.5634133 30.6267378,36.5634133 C32.1935289,36.5634133 33.5424711,35.6466489 34.1772444,34.3223467 C34.5003022,34.4455467 34.8495644,34.5163378 35.2160356,34.5163378 C36.82624,34.5163378 38.1317689,33.2108089 38.1317689,31.6002133 C38.1309867,29.9900089 36.8266311,28.6848711 35.2168178,28.6840889 Z"/>
            <path fill="#F69B8A" d="M28.89216,28.6840889 L25.0334578,28.6840889 C24.5699911,28.6840889 24.1945244,28.3086222 24.1945244,27.8451556 L24.1945244,16.3531378 C24.1945244,15.8896711 24.5699911,15.5142044 25.0334578,15.5142044 L28.89216,15.5142044 C29.3552356,15.5142044 29.7310933,15.8896711 29.7310933,16.3531378 L29.7310933,27.8451556 C29.7310933,28.3082311 29.3552356,28.6840889 28.89216,28.6840889 Z"/>
            <path fill="#ABC0D8" d="M8.98734222 7.43228444C6.17095111 11.1838222 4.49856 15.8407822 4.49856 20.8822044L4.49856 22.6257778C4.49856 23.7013333 5.37034667 24.5735111 6.44629333 24.5735111L6.44629333 20.8822044C6.44629333 16.2545778 8.00213333 11.9738667 10.6139733 8.53287111 10.0632889 8.17813333 9.52042667 7.81244444 8.98734222 7.43228444zM44.4403911 6.98016C44.0219022 7.45379556 43.5998933 7.92430222 43.1696711 8.38737778 45.8495644 11.8534044 47.4519467 16.18848 47.4519467 20.8825956L47.4519467 24.5739022C48.5278933 24.5739022 49.4000711 23.7017244 49.4000711 22.6257778L49.4000711 21.2596267C49.4000711 15.89632 47.54816 10.9135644 44.4403911 6.98016z"/>
            <path fill="#FFF" d="M21.1435733,13.9768178 L16.9884089,13.9768178 C15.8948622,13.9768178 15,13.0819556 15,11.9884089 C15,10.8948622 15.8948622,10 16.9884089,10 L21.1435733,10 C22.23712,10 23.1319822,10.8948622 23.1319822,11.9884089 C23.1319822,13.0819556 22.2375111,13.9768178 21.1435733,13.9768178 Z" transform="rotate(-5 19.066 11.988)"/>
            <path fill="#FFF" d="M36.1435733,13.9768178 L31.9884089,13.9768178 C30.8948622,13.9768178 30,13.0819556 30,11.9884089 C30,10.8948622 30.8948622,10 31.9884089,10 L36.1435733,10 C37.23712,10 38.1319822,10.8948622 38.1319822,11.9884089 C38.1319822,13.0823467 37.23712,13.9768178 36.1435733,13.9768178 Z" transform="rotate(5 34.066 11.988)"/>
          </g>
          <g fill="#FFF" fill-rule="nonzero" transform="translate(62.578 47.716)">
            <circle cx="1.527" cy="1.663" r="1.395"/>
            <circle cx="1.527" cy="7.755" r="1.395"/>
            <circle cx="1.527" cy="13.848" r="1.395"/>
          </g>
          <path fill="#F8B3A0" fill-rule="nonzero" d="M81.9565511,97.9377422 C81.72736,97.9377422 81.4938667,97.90528 81.26272,97.8364444 C79.9736178,97.4539378 79.23872,96.0987378 79.6216178,94.8096356 C82.0175644,86.7374933 88.3109333,82.4106311 88.5776711,82.2303289 C89.6927289,81.4766578 91.2059378,81.7703822 91.9584356,82.8842667 C92.7101511,83.9965867 92.4195556,85.5066667 91.3107556,86.26112 C91.2129778,86.3287822 86.1656889,89.8742044 84.2895289,96.1953422 C83.9754667,97.2536889 83.0062933,97.9377422 81.9565511,97.9377422 Z"/>
          <path fill="#60A7DB" fill-rule="nonzero" d="M88.9214578,93.3191111 L39.2875022,93.3191111 C38.48064,93.3191111 37.8267022,93.9730489 37.8267022,94.7799111 L37.8267022,99.6038756 C37.8267022,100.410738 38.48064,101.064676 39.2875022,101.064676 L88.9214578,101.064676 C89.72832,101.064676 90.3822578,100.410738 90.3822578,99.6038756 L90.3822578,94.7799111 C90.3822578,93.9730489 89.72832,93.3191111 88.9214578,93.3191111 Z"/>
          <path fill="#FFCA07" fill-rule="nonzero" d="M68.4776889,91.6870044 L59.8063644,91.6870044 C59.16064,91.6870044 58.6369422,92.2107022 58.6369422,92.8564267 L58.6369422,101.527751 C58.6369422,102.173476 59.16064,102.697173 59.8063644,102.697173 L68.4776889,102.697173 C69.1234133,102.697173 69.6471111,102.173476 69.6471111,101.527751 L69.6471111,92.8564267 C69.6471111,92.2107022 69.1238044,91.6870044 68.4776889,91.6870044 Z"/>
          <rect width="7.746" height="7.746" x="60.269" y="93.319" fill="#60A7DB" fill-rule="nonzero" transform="rotate(90 64.142 97.192)"/>
          <polygon fill="#F8B3A0" fill-rule="nonzero" points="105.39 72.227 116.855 65.071 120.063 75.93"/>
          <polygon fill="#F8B3A0" fill-rule="nonzero" points="22.278 71.916 11.427 64.874 9.277 75.28 17.961 76.903"/>
          <path fill="#3588BB" fill-rule="nonzero" d="M84.4557511 101.064676L88.9210667 101.064676C89.7279289 101.064676 90.3818667 100.410738 90.3818667 99.6038756L90.3818667 94.7799111C90.3818667 93.9730489 89.7279289 93.3191111 88.9210667 93.3191111L81.3804444 93.3191111C81.6088533 94.8585244 82.3359289 98.3652267 84.4557511 101.064676zM43.7528178 101.064676L39.2875022 101.064676C38.48064 101.064676 37.8267022 100.410738 37.8267022 99.6038756L37.8267022 94.7799111C37.8267022 93.9730489 38.48064 93.3191111 39.2875022 93.3191111L46.8281244 93.3191111C46.6001067 94.8585244 45.8730311 98.3652267 43.7528178 101.064676z"/>
          <g fill="#F8B3A0" fill-rule="nonzero" transform="translate(80.569 68.444)">
            <path d="M45.65792,6.69582222 C42.0992,0.531911111 34.1443911,-1.59964444 27.98048,1.95907556 L10.0222222,12.33408 C3.85831111,15.8928 1.72675556,23.8476089 5.28547556,30.01152 C8.84419556,36.1754311 16.7990044,38.3069867 22.9629156,34.7482667 L40.9211733,24.3732622 C47.0850844,20.8145422 49.21664,12.8597333 45.65792,6.69582222 Z"/>
            <path d="M19.3842489,37.9831467 C19.1926044,37.5286756 19.2849067,36.96 19.7135644,36.7159467 L26.0679467,32.95424 L17.4071822,33.27456 L17.3696356,33.1849956 C16.9515378,32.1911822 15.9518578,31.5290311 14.8778667,31.6213333 C14.1245867,31.6862578 13.5621689,32.0582044 13.1773156,32.5537422 C12.7310578,31.9819378 12.0430933,31.6088178 11.264,31.6088178 C11.2538311,31.6088178 11.2440533,31.6088178 11.2334933,31.6088178 C10.96832,31.6119467 10.7184,31.6682667 10.4802133,31.7496178 C10.6014578,31.3049244 10.6820267,30.8707911 10.7140978,30.4663822 C10.8200889,29.1256533 9.82040889,27.9358933 8.48046222,27.8302933 C7.13973333,27.7293867 5.96874667,28.7075556 5.86236444,30.0482844 C5.77905778,30.80704 5.31324444,32.5646933 2.79722667,32.5873778 C1.56992,32.59872 0.478328889,33.5002311 0.33088,34.7189333 C0.152142222,36.1992889 1.3024,37.4574933 2.74716444,37.4574933 C5.05237333,37.4574933 6.79008,36.7046044 8.04750222,35.6247467 C8.36234667,35.3544889 8.84615111,35.5696 8.85123556,35.9845689 L8.95566222,44.5487289 C8.97248,45.8832 10.0589867,46.9536711 11.3899378,46.9536711 L11.4204444,46.9536711 C12.7603911,46.9536711 13.8422044,45.85856 13.8257778,44.5190044 L13.7655467,39.58944 C13.7588978,39.0547911 14.4937956,38.9018667 14.7014756,39.3942756 L16.6190933,43.9440711 C17.0113778,44.8741333 17.9136711,45.4334222 18.86368,45.4334222 C19.2164622,45.4334222 19.5758933,45.3567644 19.9185067,45.1924978 C21.1082667,44.6218667 21.5717333,43.1563733 21.0593778,41.9404089 L19.3842489,37.9831467 Z"/>
          </g>
          <g fill="#F8B3A0" fill-rule="nonzero" transform="translate(0 68.444)">
            <path d="M2.04316444,6.69582222 C5.60188444,0.531911111 13.5566933,-1.59964444 19.7206044,1.95907556 L37.6788622,12.33408 C43.8427733,15.8928 45.9743289,23.8476089 42.4156089,30.01152 C38.8568889,36.1754311 30.90208,38.3069867 24.7381689,34.7482667 L6.77991111,24.3732622 C0.616,20.8145422 -1.51555556,12.8597333 2.04316444,6.69582222 Z"/>
            <path d="M28.3164444,37.9831467 C28.5080889,37.5286756 28.4157867,36.96 27.9871289,36.7159467 L21.6327467,32.95424 L30.2935111,33.27456 L30.3310578,33.1849956 C30.7491556,32.1911822 31.7488356,31.5290311 32.8228267,31.6213333 C33.5761067,31.6862578 34.1385244,32.0582044 34.5233778,32.5537422 C34.9696356,31.9819378 35.6576,31.6088178 36.4366933,31.6088178 C36.4468622,31.6088178 36.45664,31.6088178 36.4672,31.6088178 C36.7323733,31.6119467 36.9822933,31.6682667 37.22048,31.7496178 C37.0992356,31.3049244 37.0186667,30.8707911 36.9865956,30.4663822 C36.8806044,29.1256533 37.8802844,27.9358933 39.2202311,27.8302933 C40.56096,27.7293867 41.7319467,28.7075556 41.8383289,30.0482844 C41.9216356,30.80704 42.3874489,32.5646933 44.9034667,32.5873778 C46.1307733,32.59872 47.2223644,33.5002311 47.3698133,34.7189333 C47.5485511,36.1992889 46.3982933,37.4574933 44.9535289,37.4574933 C42.64832,37.4574933 40.9106133,36.7046044 39.6531911,35.6247467 C39.3383467,35.3544889 38.8545422,35.5696 38.8494578,35.9845689 L38.74464,44.5487289 C38.7278222,45.8832 37.6413156,46.9536711 36.3103644,46.9536711 L36.2798578,46.9536711 C34.9399111,46.9536711 33.8580978,45.85856 33.8745244,44.5190044 L33.9347556,39.58944 C33.9414044,39.0547911 33.2065067,38.9018667 32.9988267,39.3942756 L31.0812089,43.9440711 C30.6889244,44.8741333 29.7866311,45.4334222 28.8366222,45.4334222 C28.48384,45.4334222 28.1244089,45.3567644 27.7817956,45.1924978 C26.5920356,44.6218667 26.1285689,43.1563733 26.6409244,41.9404089 L28.3164444,37.9831467 Z"/>
          </g>
          <path fill="#FFCA07" fill-rule="nonzero" d="M70.9334756,97.1918933 C70.9334756,97.6408889 70.5662222,98.0077511 70.1176178,98.0077511 L67.5448889,98.0077511 C67.0962844,98.0077511 66.7290311,97.6404978 66.7290311,97.1918933 C66.7290311,96.7432889 67.0962844,96.3760356 67.5448889,96.3760356 L70.1172267,96.3760356 C70.5662222,96.3760356 70.9334756,96.7432889 70.9334756,97.1918933 Z"/>
        </g>
        <g fill-rule="nonzero" transform="translate(107.379)">
          <g fill="#383331" transform="translate(24.43 85.504)">
            <path d="M39.0209606,28.9610889 L8.30352123,28.9610889 C3.82473521,28.9610889 0.160273913,25.2966276 0.160273913,20.8178416 L0.160273913,8.23282304 C0.160273913,3.75403701 3.82473521,0.0895757205 8.30352123,0.0895757205 L39.0209606,0.0895757205 C43.4997466,0.0895757205 47.1642079,3.75403701 47.1642079,8.23282304 L47.1642079,20.8178416 C47.1642079,25.2966276 43.4997466,28.9610889 39.0209606,28.9610889 Z"/>
            <g transform="translate(2.961 15.546)">
              <rect width="9.618" height="81.964" x="7.283" y=".298"/>
              <rect width="9.618" height="81.964" x="4.143" y=".298" transform="rotate(-180 19.131 41.28)"/>
            </g>
          </g>
          <g transform="translate(0 51.82)">
            <path fill="#6A3B22" d="M4.17785602,75.1506982 C5.67954486,75.6974062 7.35557321,74.9156544 7.90191108,73.4139656 L12.0549672,62.0034254 C12.6016752,60.5017365 11.8199235,58.8257082 10.3182346,58.2793703 C8.81654581,57.7326623 7.14051746,58.5144141 6.59417959,60.0161029 L2.44112346,71.4266431 C1.89478559,72.928332 2.67616719,74.6043603 4.17785602,75.1506982 Z"/>
            <path fill="#815035" d="M0.893536319,67.1299697 L3.16032025,63.8508321 C4.65830761,61.683988 5.87313205,59.334291 6.77481162,56.859114 L25.7896643,4.83893965 C27.0996166,1.23999448 31.0790735,-0.615555468 34.6780187,0.694396908 C38.2769639,2.00434928 40.1325138,5.98343604 38.8225614,9.58275136 L19.0259571,63.7468206 C18.8623518,64.1954395 18.817564,64.6784821 18.8956651,65.14968 L19.4993759,68.7963742 C19.7651418,70.4024447 18.6894929,71.9585452 17.1089626,72.2542932 C15.5284323,72.5504112 14.0174898,71.4784638 13.7517238,69.8727635 L13.3649196,67.5356515 C13.31569,67.2391633 13.1109983,66.9922748 12.8285757,66.8897439 L9.68269121,65.7448774 C9.32697936,65.6153257 8.92870054,65.7422863 8.71364478,66.0535805 L5.64067936,70.4986831 C4.71086857,71.8434293 2.8823394,72.186186 1.57645865,71.2597065 C0.271688342,70.3328569 -0.0359043177,68.474716 0.893536319,67.1299697 Z"/>
            <path fill="#338FCD" d="M25.7900344,4.83893965 C27.0999868,1.23999448 31.0794437,-0.615555468 34.6780187,0.694396908 C38.2769639,2.00434928 40.1325138,5.98343604 38.8225614,9.58275136 L30.5623475,32.2498504 L17.6904645,27.0644526 L25.7900344,4.83893965 Z"/>
          </g>
          <g transform="translate(56.633 51.82)">
            <path fill="#6A3B22" d="M35.4279378,75.1506982 C33.9262489,75.6974062 32.2502206,74.9156544 31.7038827,73.4139656 L27.5508266,62.0034254 C27.0041186,60.5017365 27.7858703,58.8257082 29.2875591,58.2793703 C30.789248,57.7326623 32.4652763,58.5144141 33.0116142,60.0161029 L37.1646703,71.4266431 C37.7110082,72.928332 36.9296266,74.6043603 35.4279378,75.1506982 Z"/>
            <path fill="#815035" d="M38.7122575,67.1299697 L36.4454735,63.8508321 C34.9474862,61.683988 33.7326617,59.334291 32.8309822,56.859114 L13.8161295,4.83893965 C12.5061771,1.23999448 8.52672024,-0.615555468 4.92777507,0.694396908 C1.3288299,2.00434928 -0.526720042,5.98343604 0.783232333,9.58275136 L20.5798367,63.7468206 C20.743442,64.1954395 20.7882298,64.6784821 20.7101287,65.14968 L20.1064179,68.7963742 C19.8406519,70.4024447 20.9163009,71.9585452 22.4968312,72.2542932 C24.0773614,72.5504112 25.588304,71.4784638 25.8540699,69.8727635 L26.2408742,67.5356515 C26.2901038,67.2391633 26.4947954,66.9922748 26.7772181,66.8897439 L29.9231026,65.7448774 C30.2788144,65.6153257 30.6770932,65.7422863 30.892149,66.0535805 L33.9647443,70.4986831 C34.8945551,71.8434293 36.7230842,72.186186 38.028965,71.2597065 C39.3341054,70.3328569 39.6416981,68.474716 38.7122575,67.1299697 Z"/>
            <path fill="#338FCD" d="M13.8157594,4.83893965 C12.505807,1.23999448 8.52635009,-0.615555468 4.92777507,0.694396908 C1.3288299,2.00434928 -0.526720042,5.98343604 0.783232333,9.58275136 L9.04344629,32.2498504 L21.9153293,27.0644526 L13.8157594,4.83893965 Z"/>
          </g>
          <path fill="#3FABE0" d="M70.8022041,58.2967673 C70.350624,54.5808554 67.1965963,51.7869813 63.4532935,51.7869813 L48.1343648,51.7869813 L48.049601,51.7869813 L32.7306722,51.7869813 C28.9873694,51.7869813 25.8333417,54.5812256 25.3817616,58.2967673 L20.4843386,102.300655 C20.3514556,103.394441 21.1976131,104.361267 22.2991723,104.374592 L73.9166261,105.000512 C75.0363226,105.014207 75.9113515,104.038128 75.7762476,102.926574 L70.8022041,58.2967673 Z"/>
          <path fill="#338FCD" d="M57.5401856,54.4431605 L57.5401856,51.7869813 L48.1347349,51.7869813 L48.0499711,51.7869813 L38.6693203,51.7869813 L38.6693203,54.4431605 C38.6693203,59.6459553 42.9023284,63.8785931 48.1047529,63.8785931 C53.3071775,63.8785931 57.5401856,59.6455851 57.5401856,54.4431605 Z"/>
          <path fill="#6A3B22" d="M48.1047529,60.9170422 C44.543933,60.9170422 41.6305012,58.0036104 41.6305012,54.4427904 L41.6305012,36.1138213 C41.6305012,32.5530013 44.543933,29.6395695 48.1047529,29.6395695 C51.6655729,29.6395695 54.5790047,32.5530013 54.5790047,36.1138213 L54.5790047,54.4427904 C54.5786346,58.0036104 51.6655729,60.9170422 48.1047529,60.9170422 Z"/>
          <g transform="translate(24.06)">
            <path fill="#231F20" d="M26.4755478,0.0381252034 C24.9697873,-0.0558922884 23.6435484,0.807662075 23.0490914,2.07541762 C22.8133074,2.57807807 22.2847366,2.8986259 21.74173,2.78350999 C21.450794,2.72169534 21.1439417,2.70392826 20.8282058,2.73724154 C19.3176334,2.89714531 18.2071906,4.23856023 18.2071906,5.75727585 C18.2071906,8.18285311 18.2071906,13.0051361 18.2071906,15.4303432 C18.2071906,16.9357335 19.3009767,18.2664142 20.7963731,18.4403836 C21.8072462,18.5580905 22.7315047,18.1501878 23.3403976,17.4587521 C24.0529317,18.4933147 25.2995888,19.1347805 26.6746872,18.973026 C28.4717538,18.7616717 29.7883688,17.1681862 29.7883688,15.3589047 L29.7883688,3.67963735 C29.7879987,1.79336515 28.3581185,0.155461994 26.4755478,0.0381252034 Z"/>
            <path fill="#815035" d="M27.4523673,50.2467971 L20.528016,50.2467971 C17.3421556,50.2467971 14.7355762,47.6402177 14.7355762,44.4543573 C14.7355762,41.2684968 17.3421556,38.6619174 20.528016,38.6619174 L27.4523673,38.6619174 C30.6382277,38.6619174 33.2448072,41.2684968 33.2448072,44.4543573 C33.2448072,47.6402177 30.6382277,50.2467971 27.4523673,50.2467971 Z"/>
            <circle cx="5.978" cy="27.784" r="5.762" fill="#6A3B22"/>
            <circle cx="42.112" cy="27.784" r="5.762" fill="#6A3B22"/>
            <path fill="#815035" d="M42.0028697,38.9213909 L42.0028697,23.0516824 C42.0028697,14.3887479 34.9152833,7.30116152 26.2523488,7.30116152 L21.8375983,7.30116152 C13.1746637,7.30116152 6.08707737,14.3887479 6.08707737,23.0516824 L6.08707737,38.9213909 C6.08707737,42.8753076 9.29255563,46.0807858 13.2464724,46.0807858 L34.8438448,46.0807858 C38.7977616,46.0807858 42.0028697,42.8753076 42.0028697,38.9213909 Z"/>
            <path fill="#231F20" d="M6.06190733,33.5464775 L6.00231357,38.9213909 C6.00231357,42.8753076 9.20779183,46.0807858 13.1617086,46.0807858 L14.8888173,46.0807858 C15.5965395,48.4808229 17.8222371,50.2467971 20.4432522,50.2467971 L27.3676035,50.2467971 C29.9889888,50.2467971 32.2143162,48.4808229 32.9220385,46.0807858 L34.759081,46.0807858 C38.7129978,46.0807858 41.918476,42.8753076 41.918476,38.9213909 L41.9780698,33.5464775 L6.06190733,33.5464775 Z" opacity=".15"/>
            <g fill="#61371E" transform="translate(15.546 21.839)">
              <path d="M2.0254477 9.25146925C1.10674134 9.25146925.354971554 8.49969946.354971554 7.58099311L.354971554 1.85369921C.354971554.934992851 1.10674134.183223065 2.0254477.183223065 2.94415405.183223065 3.69592384.934992851 3.69592384 1.85369921L3.69592384 7.58099311C3.69592384 8.50006961 2.94415405 9.25146925 2.0254477 9.25146925zM15.091288 9.25146925C14.1725817 9.25146925 13.4208119 8.49969946 13.4208119 7.58099311L13.4208119 1.85369921C13.4208119.934992851 14.1725817.183223065 15.091288.183223065 16.0099944.183223065 16.7617642.934992851 16.7617642 1.85369921L16.7617642 7.58099311C16.7617642 8.50006961 16.0099944 9.25146925 15.091288 9.25146925z"/>
            </g>
            <path fill="#231F20" d="M26.2523488,4.9544257 L21.8375983,4.9544257 C11.8428726,4.9544257 3.7407117,13.0565866 3.7407117,23.0513123 L3.7407117,27.0973957 C3.7407117,27.70999 4.1885903,28.2574383 4.79859356,28.3155515 C5.49817253,28.3821781 6.08707737,27.8339895 6.08707737,27.1477358 L6.08707737,23.0516824 C6.08707737,16.04923 10.7194747,10.0802297 17.0704673,8.04774924 C17.6379035,7.86600676 18.220886,8.28057208 18.2264382,8.87650972 L18.2471665,9.95734073 C18.2471665,13.1309863 20.843752,15.7275718 24.0173975,15.7275718 C27.1910431,15.7275718 29.7876285,13.1309863 29.7876285,9.95734073 L29.7665301,8.86281426 C29.7609779,8.26243485 30.3435902,7.83639495 30.9165787,8.01517625 C37.3201323,10.0154539 42.0024995,16.0111048 42.0024995,23.0513123 L42.0024995,27.0970256 C42.0024995,27.7096199 42.4503781,28.2570682 43.0603814,28.3151814 C43.7599604,28.3818079 44.3488652,27.8336193 44.3488652,27.1473657 L44.3488652,23.0513123 C44.3492353,13.0569568 36.2470744,4.9544257 26.2523488,4.9544257 Z"/>
            <path fill="#6A3B22" d="M25.7204467,33.5464775 L22.2743724,33.5464775 C21.7883686,33.5464775 21.3945316,33.1526404 21.3945316,32.6666366 L21.3945316,22.9017726 C21.3945316,22.4157688 21.7883686,22.0219318 22.2743724,22.0219318 L25.7204467,22.0219318 C26.2064505,22.0219318 26.6002875,22.4157688 26.6002875,22.9017726 L26.6002875,32.6666366 C26.6002875,33.1526404 26.2064505,33.5464775 25.7204467,33.5464775 Z"/>
          </g>
          <path fill="#4F2A17" d="M48.1332543,38.856615 C43.5908029,38.856615 41.4639348,36.4080886 41.3758396,36.303707 C41.1533809,36.0412723 41.1859539,35.6481756 41.4483886,35.4257169 C41.7108232,35.2032582 42.10392,35.2362013 42.3263787,35.4982658 C42.3989276,35.5822893 44.1989554,37.6106982 48.1336245,37.6106982 C52.0682935,37.6106982 53.8679512,35.5822893 53.942721,35.4956748 C54.1670304,35.2365714 54.559757,35.2062193 54.8199708,35.4286781 C55.0801846,35.6515069 55.1127576,36.0416425 54.8910391,36.3033368 C54.8025739,36.4080886 52.6757057,38.856615 48.1332543,38.856615 Z"/>
          <path fill="#231F20" d="M43.5293584 20.9118591L39.7331246 20.9118591C38.766299 20.9118591 37.9756637 20.1208537 37.9756637 19.1543983 37.9756637 18.1875727 38.7666692 17.3969375 39.7331246 17.3969375L43.5293584 17.3969375C44.4961839 17.3969375 45.2871894 18.1879429 45.2871894 19.1543983 45.2871894 20.1208537 44.4961839 20.9118591 43.5293584 20.9118591zM56.5951987 20.9118591L52.7989649 20.9118591C51.8321393 20.9118591 51.041504 20.1208537 51.041504 19.1543983 51.041504 18.1875727 51.8325095 17.3969375 52.7989649 17.3969375L56.5951987 17.3969375C57.5620243 17.3969375 58.3526595 18.1879429 58.3526595 19.1543983 58.3530297 20.1208537 57.5620243 20.9118591 56.5951987 20.9118591z"/>
        </g>
        <g transform="matrix(-1 0 0 1 273.908 10.673)">
          <path fill="#774227" fill-rule="nonzero" d="M67.2955183,28.068324 L33.8189075,24.8507357 C25.9460849,24.0976831 18.8947742,29.8482665 18.1417216,37.7210891 C17.388669,45.5939117 23.1392525,52.6452224 31.0120751,53.398275 L64.4886859,56.6158634 C72.3615085,57.3689159 79.4128192,51.6183325 80.1658718,43.7455099 C80.9189244,35.8726873 75.1683409,28.8213766 67.2955183,28.068324 Z"/>
          <rect width="10.269" height="77.77" x="34.64" y="104.537" fill="#FF9D8A" fill-rule="nonzero"/>
          <rect width="10.269" height="77.77" x="50.318" y="104.537" fill="#FF9D8A" fill-rule="nonzero"/>
          <path fill="#9069CD" fill-rule="nonzero" d="M21.9754439,144.996854 L27.0414341,98.7183494 C27.6575681,93.2416032 33.6135295,89.0655843 40.8017588,89.0655843 L52.782141,89.0655843 C60.0388297,89.0655843 65.9947911,93.3100626 66.5424658,98.7868087 L70.992322,144.996854 C71.1292407,146.092204 69.9654321,146.982175 68.5277862,146.982175 L24.3030611,146.982175 C22.9338745,146.982175 21.8385253,146.023744 21.9754439,144.996854 Z"/>
          <g fill-rule="nonzero" transform="translate(0 39.706)">
            <polygon fill="#FFAADE" points="78.181 45.799 55.247 31.491 59.286 19.648 77.77 31.217"/>
            <path fill="#FFAADE" d="M11.1588703,46.8946389 C9.03663115,46.8946389 6.91439202,45.7992897 5.68212413,43.8824285 C3.83372231,40.8702182 4.72369356,36.8995772 7.73590394,35.0511754 L34.3665821,19.5109082 C34.3665821,19.5109082 38.8848977,18.8947742 40.7332995,21.9069846 C42.5817013,24.919195 41.6917301,29.0952139 38.6795197,30.9436158 L16.0194825,44.9777778 C14.9925926,45.662371 12.3226788,46.8946389 11.1588703,46.8946389 Z"/>
            <path fill="#FFAADE" d="M56.6158634,18.4840183 L47.0315576,16.2248605 L36.8995772,18.4840183 C33.0658549,19.3739895 30.3274818,22.7969559 30.3274818,26.7675968 L30.3274818,48.1269068 C30.3274818,51.2760359 32.9289362,53.8774903 36.0780653,53.8774903 L57.4373753,53.8774903 C60.5865043,53.8774903 63.1879587,51.2760359 63.1879587,48.1269068 L63.1879587,26.6991375 C63.1194994,22.7969559 60.4495857,19.3739895 56.6158634,18.4840183 Z"/>
            <path fill="#FFF" d="M38.953357,17.388669 L38.953357,25.6037883 C38.953357,27.1783528 40.7332995,28.1367834 42.0340267,27.3152714 L45.9362084,24.8507357 C46.4154236,24.508439 47.1000169,24.508439 47.5792322,24.8507357 L51.4814138,27.3837308 C52.782141,28.2052427 54.5620835,27.2468121 54.5620835,25.6722476 L54.5620835,17.4571284 C54.5620835,16.4986978 53.7405716,15.6771859 52.782141,15.6771859 L40.7332995,15.6771859 C39.7748689,15.6087265 38.953357,16.3617791 38.953357,17.388669 Z"/>
            <path fill="#DE8366" d="M48.4692035,23.2077118 L52.0290884,19.3055302 C52.5083037,18.7578556 52.782141,18.004803 52.782141,17.2517504 L52.782141,4.03910029 L40.6648402,4.03910029 L40.6648402,17.2517504 C40.6648402,18.004803 40.9386775,18.6893962 41.4178928,19.3055302 L44.9777778,23.2077118 C45.9362084,24.2346017 47.5792322,24.2346017 48.4692035,23.2077118 Z"/>
            <g fill="#9069CD" transform="translate(45.183 30.122)">
              <circle cx="1.848" cy="2.054" r="1.506"/>
              <circle cx="1.848" cy="10.611" r="1.506"/>
              <circle cx="1.848" cy="19.169" r="1.506"/>
            </g>
            <path fill="#E59B80" d="M10.4058177 46.9630983C7.25668865 46.9630983 4.72369356 44.4985625 4.72369356 41.0755961L4.72369356 11.9119229C4.72369356 8.76279384 7.25668865 6.22979875 10.4058177 6.22979875 13.5549467 6.22979875 16.0879418 8.76279384 16.0879418 11.9119229L16.0879418 45.0462371C16.0879418 45.0462371 13.5549467 46.9630983 10.4058177 46.9630983zM71.6769153 40.5963809L77.701336 31.0805344 84.2734314 35.393472C87.0118045 37.2418738 87.4225605 41.1440555 85.0949433 43.4716726L83.7257568 44.8408591 71.6769153 40.5963809z"/>
            <path fill="#E59B80" d="M16.5671571,4.17601894 C15.4718079,3.83372231 14.3079993,4.51831558 13.9657027,5.61366481 L13.6918654,6.50363606 C13.5549467,6.84593269 13.0757314,6.98285134 12.8703535,6.64055471 L8.96817182,1.16380856 C8.35203788,0.273837308 7.05131067,0.0684593269 6.16133942,0.753052596 C5.27136817,1.36918654 5.06599019,2.66991375 5.75058346,3.559885 L8.76279384,7.73590394 C8.83125317,7.87282259 8.69433452,8.00974125 8.55741586,7.87282259 L4.51831558,3.559885 C3.76526298,2.73837308 2.5329951,2.73837308 1.71148317,3.49142567 C0.88997125,4.24447827 0.88997125,5.47674615 1.64302385,6.29825808 L5.13444952,10.0635211 C5.27136817,10.2004397 5.06599019,10.4058177 4.92907154,10.268899 L3.28604769,9.17354981 C2.39607644,8.55741586 1.16380856,8.76279384 0.547674615,9.72122442 C-0.0684593269,10.6111957 0.136918654,11.8434636 1.09534923,12.4595975 L8.76279384,17.7309657 L11.0219516,14.444918 L8.48895654,12.7334348 L10.8165737,10.5427363 L11.2957889,11.1588703 L12.8018941,10.0635211 L11.9119229,13.0757314 L15.9510232,14.23954 L18.0732623,6.84593269 C18.2786403,5.68212413 17.6625063,4.51831558 16.5671571,4.17601894 Z"/>
            <path fill="#DE8366" d="M13.0757314 9.51584644C12.8703535 9.72122442 12.5965162 9.78968375 12.2542195 9.78968375 12.2542195 9.78968375 10.6111957 9.58430577 9.58430577 10.5427363 8.48895654 11.5696262 8.21511923 13.2126501 8.21511923 13.2126501 8.1466599 13.7603247 7.66744461 14.1026213 7.11977 14.034162 6.57209538 13.9657027 6.22979875 13.4864874 6.29825808 12.9388128 6.29825808 12.8703535 6.57209538 10.5427363 8.28357856 9.03663115 9.99506173 7.46206663 12.3911382 7.80436327 12.5280568 7.80436327 13.0757314 7.87282259 13.4180281 8.35203788 13.3495687 8.8997125 13.3495687 9.17354981 13.2126501 9.31046846 13.0757314 9.51584644zM70.3077287 58.1904279L67.7747336 58.1904279C66.9532217 58.1904279 66.3370878 58.8065618 66.3370878 59.6280737 66.3370878 60.4495857 66.9532217 61.0657196 67.7747336 61.0657196L70.3077287 61.0657196C71.1292407 61.0657196 71.7453746 60.4495857 71.7453746 59.6280737 71.7453746 58.8065618 71.1292407 58.1904279 70.3077287 58.1904279z"/>
            <path fill="#E59B80" d="M64.6940639,63.7356334 L69.2808388,63.7356334 C70.2392694,63.7356334 71.0607813,62.9141214 70.992322,61.9556909 C70.9238627,60.9972603 70.1023508,60.312667 69.2123795,60.312667 L67.5693557,60.312667 L64.6940639,63.7356334 Z"/>
            <path fill="#E59B80" d="M67.5693557,60.312667 L84.6841874,44.0193472 L76.8113648,35.7357686 L63.3933367,48.4692035 C62.0241502,49.7699307 61.2710976,51.5498732 61.2710976,53.398275 L61.2710976,60.312667 C61.2710976,62.1610688 62.7772028,63.667174 64.6256046,63.667174"/>
          </g>
          <g transform="translate(25.33)">
            <path fill="#774227" fill-rule="nonzero" d="M49.0168781,34.0242855 L35.6673093,34.7088787 L35.2565534,27.2468121 L48.6061221,26.5622188 C50.6599019,26.4253002 52.4398444,28.068324 52.5767631,30.1221038 C52.6452224,32.1074243 51.0706579,33.8873668 49.0168781,34.0242855 Z"/>
            <path fill="#FFF" fill-rule="nonzero" d="M3.90218163,40.8702182 C3.90218163,41.6917301 3.21758836,42.3763234 2.39607644,42.3763234 C1.57456452,42.3763234 0.88997125,41.6917301 0.88997125,40.8702182 C0.88997125,40.3225435 1.57456452,38.747979 1.98532048,37.8580078 C2.12223913,37.5157111 2.60145442,37.5157111 2.73837308,37.8580078 C3.21758836,38.8164384 3.90218163,40.3225435 3.90218163,40.8702182 Z"/>
            <path fill="#774227" fill-rule="nonzero" d="M29.3690512,0.342296635 C16.9779131,-1.71148317 5.27136817,6.70901404 3.21758836,19.1001522 L1.98532048,26.7675968 L46.8946389,34.1612041 L48.1269068,26.4937595 C50.1806866,14.034162 41.7601894,2.39607644 29.3690512,0.342296635 Z"/>
            <g fill-rule="nonzero" transform="translate(0 12.323)">
              <path fill="#DE8366" d="M6.43517673 14.5133773C3.559885 14.034162.821511923 16.0194825.342296635 18.8947742-.136918654 21.770066 1.84840183 24.508439 4.72369356 24.9876543L6.43517673 14.5133773zM42.8555386 20.5377981C45.7308304 21.0170134 47.7161509 23.7553864 47.2369356 26.6306782 46.7577203 29.5059699 44.0193472 31.4912904 41.1440555 31.0120751L42.8555386 20.5377981z"/>
              <path fill="#E59B80" d="M31.0805344,38.3372231 L12.3226788,35.393472 C7.32514798,34.5719601 3.83372231,29.9167259 4.65523423,24.8507357 L6.02442077,16.0194825 C7.59898529,5.95596144 17.0463724,-0.88997125 27.1098935,0.684593269 L27.6575681,0.753052596 C37.7210891,2.32761711 44.5670218,11.7750042 42.9924573,21.8385253 L41.6232708,30.6697785 C40.8702182,35.6673093 36.1465246,39.158735 31.0805344,38.3372231 Z"/>
              <path fill="#E59B80" d="M20.5377981,41.6232708 C15.6087265,40.8702182 12.2542195,36.2834433 13.0757314,31.3543717 L13.7603247,26.9045155 L31.4912904,29.7113479 L30.8066971,34.1612041 C29.9851852,39.0218163 25.3984103,42.3763234 20.5377981,41.6232708 Z"/>
            </g>
            <path fill="#774227" fill-rule="nonzero" d="M45.662371,32.038965 C46.4154236,29.4375106 44.9093185,27.4521901 45.2516151,24.7822763 C45.9362084,19.7162861 43.4716726,15.3348892 40.0487062,11.8434636 C37.2418738,9.03663115 33.8873668,6.50363606 30.0536445,5.27136817 C27.5206494,4.44985625 24.4399797,3.83372231 21.564688,4.10755961 C21.0854727,5.40828683 20.6747167,6.77747336 20.4693387,8.21511923 C18.4840183,20.2639608 26.6306782,31.628209 38.6795197,33.6135295 C40.1856249,33.8873668 45.3200744,34.2296635 46.7577203,34.1612041 C46.8946389,33.7504482 45.5939117,32.449721 45.662371,32.038965 Z"/>
            <path fill="#BA725B" fill-rule="nonzero" d="M29.4375106 39.2956536C30.2590225 39.4325723 31.0805344 38.8848977 31.2174531 37.9949264L31.9705057 33.2712329C32.1074243 32.449721 31.5597497 31.628209 30.6697785 31.4912904 29.8482665 31.3543717 29.0267546 31.9020463 28.889836 32.7920176L28.1367834 37.5157111C27.9998647 38.3372231 28.5475393 39.158735 29.4375106 39.2956536zM17.1832911 37.2418738C18.004803 37.3787925 18.8263149 36.8311179 18.9632336 35.9411466L19.7162861 31.2174531C19.8532048 30.3959411 19.3055302 29.5744292 18.4155589 29.4375106 17.594047 29.3005919 16.7725351 29.8482665 16.6356164 30.7382378L15.8825638 35.4619313C15.7456452 36.3519026 16.3617791 37.1049552 17.1832911 37.2418738z"/>
            <path fill="#DE8366" fill-rule="nonzero" d="M22.1123626,40.5963809 L23.0023338,40.7332995 C23.7553864,40.8702182 24.508439,40.3225435 24.6453577,39.569491 L25.7407069,32.7235583 C25.8776256,31.9705057 25.329951,31.2174531 24.5768984,31.0805344 L23.6869271,30.9436158 C22.9338745,30.8066971 22.1808219,31.3543717 22.0439033,32.1074243 L20.948554,38.953357 C20.8116354,39.7064096 21.35931,40.4594622 22.1123626,40.5963809 Z"/>
            <path fill="#BA725B" fill-rule="nonzero" d="M21.8385253,44.8408591 C20.0585828,44.5670218 18.5524776,43.2662946 18.0732623,41.6232708 C17.9363436,41.2125148 18.210181,40.8702182 18.5524776,40.7332995 C18.9632336,40.5963809 19.3055302,40.8702182 19.4424488,41.2125148 C19.7847455,42.3763234 20.8116354,43.2662946 22.1123626,43.4716726 C23.4130898,43.6770506 24.6453577,43.1978353 25.329951,42.1709454 C25.5353289,41.8286487 26.0145442,41.7601894 26.3568409,41.9655674 C26.6991375,42.1709454 26.7675968,42.6501607 26.5622188,42.9924573 C25.4668696,44.3616438 23.6184678,45.1146964 21.8385253,44.8408591 Z"/>
            <path fill="#774227" fill-rule="nonzero" d="M18.9632336,3.08066971 C17.0463724,3.49142567 15.1295112,4.3129376 13.4180281,5.47674615 C9.72122442,8.00974125 5.88750211,12.5280568 4.44985625,17.0463724 C6.09288009,20.4008794 9.44738711,22.8654152 13.4864874,23.0707932 C19.3055302,23.3446305 24.3030611,18.8947742 24.6453577,13.0072721 C24.7822763,8.76279384 22.4546592,4.99753086 18.9632336,3.08066971 Z"/>
            <path fill="#FFF" fill-rule="nonzero" d="M44.7039405,46.8946389 C44.7039405,47.7161509 44.0193472,48.4007441 43.1978353,48.4007441 C42.3763234,48.4007441 41.6917301,47.7161509 41.6917301,46.8946389 C41.6917301,46.3469643 42.3763234,44.7723998 42.7870793,43.8824285 C42.923998,43.5401319 43.4032133,43.5401319 43.5401319,43.8824285 C44.0193472,44.7723998 44.7039405,46.278505 44.7039405,46.8946389 Z"/>
            <path fill="#774227" fill-rule="nonzero" d="M11.6380856,20.7431761 L7.18822933,27.9314054 C6.84593269,28.47908 6.02442077,28.1367834 6.16133942,27.5206494 L7.39360731,20.0585828 L10.474277,19.5793675 L11.6380856,20.7431761 Z"/>
            <path stroke="#774227" stroke-linecap="round" stroke-width="2.054" d="M16.4302385,26.6306782 C16.4302385,26.6306782 19.2370709,26.1514629 20.6747167,26.1514629"/>
            <path fill="#E59B80" fill-rule="nonzero" d="M13.6234061 34.6404194C13.6234061 34.6404194 13.7603247 34.6404194 13.9657027 34.7088787 14.9925926 34.982716 18.3470996 35.8726873 19.1001522 37.5157111L17.2517504 39.364113 15.4033486 37.2418738 13.6918654 36.2834433 13.6918654 34.6404194 13.6234061 34.6404194zM33.6135295 38.3372231C33.6135295 38.3372231 33.4766109 38.3372231 33.2712329 38.2687637 32.244343 37.9949264 28.889836 37.3787925 27.4521901 38.542601L28.273702 40.9386775 30.8751564 39.8433283 32.8604769 39.7064096 33.6135295 38.3372231z"/>
          </g>
        </g>
      </g>
    </g>
  </g>
</svg>
