<svg xmlns="http://www.w3.org/2000/svg" xmlns:xlink="http://www.w3.org/1999/xlink" width="288" height="164" viewBox="0 0 288 164">
  <defs>
    <rect id="exp_mrs_walters-a" width="288" height="164"/>
  </defs>
  <g fill="none" fill-rule="evenodd">
    <mask id="exp_mrs_walters-b" fill="#fff">
      <use xlink:href="#exp_mrs_walters-a"/>
    </mask>
    <use fill="#FFF" xlink:href="#exp_mrs_walters-a"/>
    <g mask="url(#exp_mrs_walters-b)">
      <g transform="translate(30 18)">
        <g transform="translate(0 3.757)">
          <rect width="212.95" height="100.385" x="7.299" y="2.791" fill="#4FB148" fill-rule="nonzero"/>
          <rect width="212.95" height="5.129" x="7.299" y="2.791" fill="#29A020" fill-rule="nonzero"/>
          <path fill="#FECE8E" fill-rule="nonzero" d="M222.883168,105.815488 L4.66534653,105.815488 L4.66534653,4.9023569 C4.66534653,2.26262626 6.77227723,0.150841751 9.40594059,0.150841751 L218.142574,0.150841751 C220.776238,0.150841751 222.883168,2.26262626 222.883168,4.9023569 L222.883168,105.815488 Z M9.93267327,100.536027 L217.615842,100.536027 L217.615842,5.43030303 L9.93267327,5.43030303 L9.93267327,100.536027 Z"/>
          <path fill="#FFF" fill-rule="nonzero" d="M207.081188,103.251178 L196.019802,103.251178 C195.417822,103.251178 194.891089,103.779125 194.891089,104.382492 C194.891089,104.985859 195.417822,105.513805 196.019802,105.513805 L207.081188,105.513805 C207.683168,105.513805 208.209901,104.985859 208.209901,104.382492 C208.209901,103.779125 207.683168,103.251178 207.081188,103.251178 Z"/>
          <path fill="#D9AD8B" fill-rule="nonzero" d="M224.764356,111.849158 L3.23564356,111.849158 C1.5049505,111.849158 0.0752475248,110.416162 0.0752475248,108.681481 C0.0752475248,106.946801 1.5049505,105.513805 3.23564356,105.513805 L224.689109,105.513805 C226.419802,105.513805 227.849505,106.946801 227.849505,108.681481 C227.924752,110.416162 226.49505,111.849158 224.764356,111.849158 Z"/>
          <g stroke="#FFF" stroke-linejoin="round" stroke-width="1.506" transform="translate(155.762 48.12)">
            <polyline stroke-linecap="round" points=".15 1.584 .15 42.764 50.416 42.764"/>
            <ellipse cx="31.453" cy="19.76" rx="10.535" ry="10.559"/>
            <path stroke-linecap="round" d="M3.83762376,39.6713805 C3.83762376,39.6713805 34.839604,22.0983165 44.8475248,1.58383838"/>
            <polyline stroke-linecap="round" points="41.612 1.81 45.45 .603 46.277 4.073"/>
            <path stroke-dasharray="3.013 4.519" stroke-linecap="round" d="M31.0019802,0.301683502 L31.0019802,40.2747475"/>
            <path stroke-linecap="round" d="M5.49306931 7.99461279L12.8673267 7.99461279M6.01980198 12.5952862L10.0831683 12.5952862"/>
          </g>
          <g stroke="#FFF" stroke-linecap="round" stroke-linejoin="round" stroke-width="1.511" transform="translate(156.222 33.224)">
            <path d="M.437799353 1.46779074C2.30391909.278319039 4.27903263-.0287444254 5.7894404.843626072 7.25743635 1.69181475 7.98026133 3.47716295 7.9310089 5.60698799M7.93374515 5.60698799C10.3402735 1.43722127 14.451027-.695797599 17.1156745.843626072 18.5836704 1.69181475 19.3064954 3.47716295 19.257243 5.60698799M19.2595232 5.60698799C21.6660515 1.43722127 25.776805-.695797599 28.4414525.843626072 29.9094485 1.69181475 30.6322735 3.47716295 30.583021 5.60698799M30.5857573 5.60698799C32.9922856 1.43722127 37.1030391-.695797599 39.7676866.843626072 41.2356826 1.69181475 41.9585076 3.47716295 41.9092551 5.60698799M41.9119914 5.60698799C43.5742608 2.7261578 46.0501073.818075472 48.3006696.420672384 49.3080642.242730703 50.2703107.367746141 51.0939207.843626072"/>
          </g>
          <g stroke="#FFF" stroke-linecap="round" stroke-linejoin="round" stroke-width="1.511" transform="translate(156.222 19.488)">
            <path d="M.437799353 1.46779074C2.30391909.278319039 4.27903263-.0287444254 5.7894404.843626072 7.25743635 1.69181475 7.98026133 3.47716295 7.9310089 5.60698799M7.93374515 5.60698799C10.3402735 1.43722127 14.451027-.695797599 17.1156745.843626072 18.5836704 1.69181475 19.3064954 3.47716295 19.257243 5.60698799M19.2595232 5.60698799C21.6660515 1.43722127 25.776805-.695797599 28.4414525.843626072 29.9094485 1.69181475 30.6322735 3.47716295 30.583021 5.60698799M30.5857573 5.60698799C32.9922856 1.43722127 37.1030391-.695797599 39.7676866.843626072 41.2356826 1.69181475 41.9585076 3.47716295 41.9092551 5.60698799M41.9119914 5.60698799C43.5742608 2.7261578 46.0501073.818075472 48.3006696.420672384 49.3080642.242730703 50.2703107.367746141 51.0939207.843626072"/>
          </g>
          <g stroke="#FFF" stroke-linejoin="round" stroke-width="1.506" transform="translate(113.164 19.88)">
            <rect width="4.891" height="5.355" x="5.719" y="17.196"/>
            <rect width="4.891" height="14.405" x="14.448" y="8.07"/>
            <rect width="4.891" height="22.4" x="23.251" y=".075"/>
            <path stroke-linecap="round" d="M0.300990099,22.4754209 L30.7762376,22.4754209"/>
          </g>
        </g>
        <g transform="translate(24.08)">
          <path fill="#0051F5" fill-rule="nonzero" d="M27.0891089,160.721886 L65.0891089,160.721886 C67.2712871,160.721886 69.0019802,158.987205 69.0019802,156.8 L69.0019802,116.902357 L32.0554455,116.902357 L23.0257426,155.517845 C22.4237624,158.157576 24.380198,160.721886 27.0891089,160.721886 Z"/>
          <path fill="#ACC1D9" fill-rule="nonzero" d="M71.1841584,113.885522 L28.5188119,113.885522"/>
          <ellipse cx="49.889" cy="81.002" fill="#D5E0EC" fill-rule="nonzero" rx="1.655" ry="1.659"/>
          <path fill="#0051F5" fill-rule="nonzero" d="M37.0217822,77.9851852 L62.7564356,77.9851852 L62.7564356,75.4962963 C62.7564356,71.8760943 59.8217822,68.8592593 56.1346535,68.8592593 L43.5683168,68.8592593 C39.9564356,68.8592593 36.9465347,71.8006734 36.9465347,75.4962963 L36.9465347,77.9851852 L37.0217822,77.9851852 Z"/>
          <path fill="#FFF" fill-rule="nonzero" d="M29.3465347,84.6222222 L29.3465347,116.902357 L70.3564356,116.902357 L70.3564356,84.6222222 C70.3564356,79.6444444 67.8732673,75.2700337 63.0574257,73.9124579 L60.1980198,73.0828283 L49.6633663,70.1414141 L36.570297,73.9124579 C31.829703,75.2700337 29.3465347,79.6444444 29.3465347,84.6222222 Z"/>
          <path fill="#D3F1F1" fill-rule="nonzero" d="M49.7386139,66.3703704 C54.0277228,66.3703704 57.4891089,69.8397306 57.4891089,74.1387205 L57.4891089,80.9265993 C57.4891089,81.9824916 56.4356436,82.6612795 55.4574257,82.2841751 L49.7386139,80.0215488 L44.019802,82.2841751 C43.0415842,82.6612795 41.9881188,81.9824916 41.9881188,80.9265993 L41.9881188,74.1387205 C41.9881188,69.8397306 45.449505,66.3703704 49.7386139,66.3703704 Z"/>
          <path fill="#FF9D8A" fill-rule="nonzero" d="M45.750495,75.043771 L48.609901,77.6835017 C49.4376238,78.4377104 50.6415842,78.4377104 51.4693069,77.6835017 L54.1782178,75.1191919 C55.4574257,73.9124579 56.1346535,72.2531987 56.1346535,70.5185185 L56.1346535,58.752862 L43.6435644,58.752862 L43.6435644,70.3676768 C43.6435644,72.1777778 44.3960396,73.837037 45.750495,75.043771 Z"/>
          <path fill="#0067F5" fill-rule="nonzero" d="M60.2732673,121.804714 L60.2732673,73.1582492 L63.8851485,74.0632997 C69.9049505,75.7225589 73.8930693,81.3791246 73.5920792,87.6390572 L72.839604,94.5023569 L72.6891089,97.8208754 L71.409901,121.125926 C71.3346535,123.011448 69.7544554,124.519865 67.7980198,124.519865 L62.9069307,124.519865 C61.4019802,124.519865 60.2732673,123.313131 60.2732673,121.804714 Z"/>
          <g fill-rule="nonzero" transform="translate(99.327 62.6)">
            <path fill="#FF9D8A" d="M9.78217822 7.08956229L12.7920792 3.77104377C13.5445545 2.86599327 13.3940594 1.58383838 12.4910891.82962963 11.5881188.0754208754 10.3089109.226262626 9.55643564 1.13131313L5.49306931 5.80740741C5.49306931 5.80740741 6.01980198 6.63703704 6.84752475 7.39124579 7.75049505 8.07003367 9.02970297 7.91919192 9.78217822 7.08956229zM13.5445545 8.37171717L21.219802 4.6006734C22.1227723 4.14814815 22.4990099 3.09225589 22.0475248 2.18720539 21.5960396 1.28215488 20.5425743.905050505 19.639604 1.35757576L11.9643564 5.12861953C11.0613861 5.58114478 10.6851485 6.63703704 11.1366337 7.54208754 11.5881188 8.44713805 12.6415842 8.82424242 13.5445545 8.37171717z"/>
            <path fill="#FFB5A1" d="M23.1762376,4.67609428 L14.3722772,4.67609428 L12.7168317,4.67609428 L8.42772277,4.67609428 C6.77227723,4.67609428 5.64356436,5.35488215 4.89108911,6.41077441 L0.677227723,12.5952862 L7.2990099,17.1959596 L12.6415842,9.5030303 C13.0930693,8.82424242 13.8455446,8.44713805 14.6732673,8.44713805 L23.2514851,8.44713805 C24.3049505,8.44713805 25.2079208,7.54208754 25.1326733,6.48619529 C25.1326733,5.50572391 24.1544554,4.67609428 23.1762376,4.67609428 Z"/>
          </g>
          <polyline stroke="#0067F5" stroke-linejoin="round" stroke-width="12.515" points="64.186 81.077 88.491 99.933 107.152 73.46"/>
          <path fill="#0067F5" fill-rule="nonzero" d="M25.4336634,120.748822 L28.5188119,113.583838 L26.7128713,87.6390572 C26.2613861,81.0020202 30.7009901,75.043771 37.1722772,73.6861953 L39.5049505,73.1582492 L39.5049505,121.955556 C39.5049505,123.388552 38.3762376,124.519865 36.9465347,124.519865 L27.8415842,124.519865 C25.960396,124.519865 24.6811881,122.483502 25.4336634,120.748822 Z"/>
          <ellipse cx="49.588" cy="89.147" fill="#D3F1F1" fill-rule="nonzero" rx="1.655" ry="1.659"/>
          <ellipse cx="49.588" cy="99.178" fill="#D3F1F1" fill-rule="nonzero" rx="1.655" ry="1.659"/>
          <ellipse cx="49.588" cy="109.209" fill="#E4E7EC" fill-rule="nonzero" rx="1.655" ry="1.659"/>
          <path fill="#0051F5" fill-rule="nonzero" d="M37.3227723 73.7616162L34.2376238 80.1723906C33.6356436 81.3791246 33.8613861 82.7367003 34.6891089 83.7925926L37.4732673 87.0356902 34.6891089 90.203367C33.9366337 91.0329966 33.7108911 92.0888889 33.9366337 93.1447811L39.5049505 116.072727 39.5049505 72.8565657 37.3227723 73.7616162zM62.4554455 73.7616162L65.3148515 80.3232323C65.8415842 81.4545455 65.6158416 82.7367003 64.8633663 83.7171717L62.229703 87.0356902 64.7881188 90.203367C65.390099 90.9575758 65.6910891 92.013468 65.4653465 92.9939394L60.1980198 116.072727 60.1980198 72.8565657 62.4554455 73.7616162z"/>
          <g fill-rule="nonzero" transform="translate(36.119 61.845)">
            <path fill="#FF9D8A" d="M10.5346535,43.9703704 L13.1683168,43.9703704 C14.5980198,43.9703704 15.7267327,45.1016835 15.7267327,46.5346801 L15.7267327,47.8922559 L5.26732673,47.8922559 L7.07326733,45.6296296 C7.9009901,44.5737374 9.18019802,43.9703704 10.5346535,43.9703704 Z"/>
            <path fill="#FA8F19" d="M5.64356436,57.6215488 L6.6970297,58.2249158 C7.07326733,58.4511785 7.52475248,58.3003367 7.75049505,57.9232323 L37.6990099,1.88552189 C37.9247525,1.50841751 37.7742574,1.05589226 37.3980198,0.82962963 C37.0217822,0.603367003 36.570297,0.754208754 36.3445545,1.13131313 L5.34257426,56.5656566 C5.11683168,56.9427609 5.26732673,57.3952862 5.64356436,57.6215488 Z"/>
            <g fill="#FFB5A1" transform="translate(0 46.007)">
              <path d="M7.37425743,0.226262626 L17.0059406,0.301683502 L17.0059406,2.41346801 L18.7366337,4.2989899 C19.639604,5.35488215 19.790099,6.86329966 18.9623762,7.99461279 L17.8336634,9.57845118 C17.3069307,10.3326599 16.4039604,10.8606061 15.4257426,10.8606061 L6.0950495,10.8606061 L2.18217822,10.8606061 L0.376237624,1.50841751 L4.89108911,0.527946128 C5.71881188,0.301683502 6.54653465,0.226262626 7.37425743,0.226262626 Z"/>
              <path d="M17.4574257,3.62020202 L13.619802,3.62020202 L13.619802,0.226262626 L17.4574257,0.226262626 C18.360396,0.226262626 19.1128713,0.98047138 19.1128713,1.96094276 C19.1128713,2.86599327 18.360396,3.6956229 17.4574257,3.62020202 Z"/>
            </g>
          </g>
          <path stroke="#0067F5" stroke-linejoin="round" stroke-width="12.515" d="M33.7861386,83.7925926 L12.2653465,112.527946 C11.8138614,113.131313 12.2653465,113.960943 12.9425743,113.960943 L40.4079208,113.960943"/>
          <g fill-rule="nonzero" transform="translate(19.564)">
            <path fill="#A22E2E" d="M49.7386139,50.0794613 C54.7049505,49.5515152 58.3920792,45.0262626 57.8653465,40.0484848 L56.4356436,27.0006734 C54.3287129,6.93872054 46.8039604,-1.28215488 31.5287129,0.301683502 C17.7584158,1.73468013 15.5009901,12.1427609 15.5009901,12.1427609 C15.5009901,12.1427609 -1.35445545,13.5757576 0.526732673,31.4505051 L1.88118812,44.4983165 C2.48316832,50.3057239 7.67524752,54.5292929 13.4693069,53.9259259 L49.7386139,50.0794613 Z"/>
            <ellipse cx="50.04" cy="36.956" fill="#FF9D8A" rx="5.493" ry="5.506"/>
            <path fill="#FFF" d="M53.8019802,51.437037 C54.5544554,51.3616162 55.0811881,50.6828283 55.0059406,49.9286195 L54.3287129,43.4424242 C54.2534653,42.6882155 53.5762376,42.1602694 52.8237624,42.2356902 C52.0712871,42.3111111 51.5445545,42.989899 51.619802,43.7441077 L52.2970297,50.230303 C52.3722772,50.9845118 53.049505,51.5124579 53.8019802,51.437037 Z"/>
            <path fill="#FFB5A1" d="M33.1841584,65.993266 C21.0693069,67.2754209 10.2336634,58.5265993 8.95445545,46.3838384 L7.6,33.7131313 C6.32079208,21.5703704 15.049505,10.7097643 27.1643564,9.42760943 C39.2792079,8.14545455 50.1148515,16.8942761 51.3940594,29.037037 L52.7485149,41.7077441 C54.0277228,53.7750842 45.2990099,64.7111111 33.1841584,65.993266 Z"/>
            <ellipse cx="20.242" cy="45.253" fill="#FF9D8A" rx="3.537" ry="3.545"/>
            <ellipse cx="46.954" cy="42.462" fill="#FF9D8A" rx="3.537" ry="3.545"/>
            <g fill="#FF9D8A" transform="translate(31.604 30.923)">
              <path d="M4.13861386,11.0868687 L2.63366337,11.2377104 C1.95643564,11.3131313 1.27920792,10.7851852 1.2039604,10.1063973 L0.376237624,2.33804714 C0.300990099,1.65925926 0.827722772,0.98047138 1.5049505,0.905050505 L3.00990099,0.754208754 C3.68712871,0.678787879 4.36435644,1.20673401 4.43960396,1.88552189 L5.26732673,9.65387205 C5.41782178,10.4080808 4.89108911,11.0114478 4.13861386,11.0868687 Z"/>
              <path d="M5.04158416,11.0114478 L1.58019802,11.3885522 C1.12871287,11.4639731 0.677227723,11.0868687 0.677227723,10.6343434 C0.601980198,10.1818182 0.978217822,9.72929293 1.42970297,9.72929293 L4.89108911,9.35218855 C5.34257426,9.27676768 5.79405941,9.65387205 5.79405941,10.1063973 C5.86930693,10.5589226 5.56831683,11.0114478 5.04158416,11.0114478 Z"/>
            </g>
            <path fill="#E58D80" d="M28.2178218 41.1043771C27.3148515 41.179798 26.4871287 40.576431 26.4118812 39.6713805L25.809901 33.9393939C25.7346535 33.0343434 26.3366337 32.2047138 27.239604 32.1292929 28.1425743 32.0538721 28.970297 32.6572391 29.0455446 33.5622896L29.6475248 39.2942761C29.7227723 40.1993266 29.1207921 41.0289562 28.2178218 41.1043771zM39.8811881 39.8976431C38.9782178 39.973064 38.150495 39.369697 38.0752475 38.4646465L37.4732673 32.7326599C37.3980198 31.8276094 38 30.9979798 38.9029703 30.9225589 39.8059406 30.847138 40.6336634 31.4505051 40.7089109 32.3555556L41.3108911 38.0875421C41.4613861 38.9925926 40.7841584 39.8222222 39.8811881 39.8976431z"/>
            <path fill="#A22E2E" d="M43.4178218,11.3131313 C38.3762376,10.2572391 33.8613861,8.14545455 28.6693069,8.2962963 C18.5861386,8.44713805 6.17029703,15.8383838 3.68712871,26.4727273 L5.34257426,37.6350168 L16.7049505,36.4282828 C18.6613861,36.2020202 20.1663366,34.3919192 19.9405941,32.4309764 L19.4891089,28.3582492 L21.8217822,32.0538721 C23.2514851,34.2410774 25.7346535,35.4478114 28.2930693,35.1461279 L54.629703,32.3555556 L53.2752475,19.2323232 L52.0712871,16.7434343 C49.5128713,15.159596 46.5782178,11.9919192 43.4178218,11.3131313 Z"/>
            <path fill="#A22E2E" d="M54.4039604 21.193266L50.6415842 21.5703704 51.8455446 32.6572391 55.6079208 32.2801347C58.6930693 31.9784512 60.8752475 29.1878788 60.5742574 26.1710438 60.1980198 23.1542088 57.4138614 20.8915825 54.4039604 21.193266zM12.8673267 28.7353535L14.6732673 45.7050505C15.049505 48.9481481 12.6415842 51.8895623 9.40594059 52.1912458L7.37425743 52.4175084 4.51485149 31.8276094 12.8673267 28.7353535z"/>
            <path fill="#FF9D8A" d="M10.0079208,35.7494949 C6.9980198,36.0511785 4.81584158,38.76633 5.11683168,41.783165 C5.41782178,44.8 8.12673267,46.9872054 11.1366337,46.6855219 L10.0079208,35.7494949 Z"/>
            <g transform="translate(25.584 43.744)">
              <path fill="#A44242" d="M16.1782178,2.03636364 L16.1782178,4.2989899 C16.1782178,7.01414141 13.9960396,9.2013468 11.2871287,9.2013468 L6.92277228,9.2013468 C3.31089109,9.2013468 0.376237624,6.25993266 0.376237624,2.63973064 L0.376237624,2.03636364 C0.376237624,1.35757576 0.827722772,0.82962963 1.42970297,0.603367003 C1.58019802,0.527946128 1.73069307,0.527946128 1.95643564,0.527946128 L14.7485149,0.527946128 C14.8990099,0.527946128 15.049505,0.527946128 15.2752475,0.603367003 C15.7267327,0.82962963 16.1782178,1.35757576 16.1782178,2.03636364 Z"/>
              <path fill="#FFF" d="M0.376237624,2.03636364 L0.376237624,2.63973064 C0.376237624,2.79057239 0.376237624,2.94141414 0.376237624,3.09225589 L14.1465347,3.09225589 C14.7485149,3.09225589 15.2,2.63973064 15.2,2.03636364 L15.2,0.603367003 C15.049505,0.527946128 14.8990099,0.527946128 14.6732673,0.527946128 L1.88118812,0.527946128 C1.73069307,0.527946128 1.58019802,0.527946128 1.35445545,0.603367003 C0.752475248,0.82962963 0.376237624,1.35757576 0.376237624,2.03636364 Z"/>
              <path fill="#F34848" d="M1.5049505,6.41077441 C2.70891089,8.07003367 4.66534653,9.2013468 6.84752475,9.2013468 L10.6851485,9.2013468 C10.4594059,6.56161616 8.2019802,4.52525253 5.49306931,4.52525253 C3.91287129,4.52525253 2.48316832,5.27946128 1.5049505,6.41077441 Z"/>
            </g>
            <path fill="#FFF" d="M11.0613861,55.9622896 C11.8138614,55.8868687 12.3405941,55.2080808 12.2653465,54.4538721 L11.5881188,47.9676768 C11.5128713,47.213468 10.8356436,46.6855219 10.0831683,46.7609428 C9.33069307,46.8363636 8.8039604,47.5151515 8.87920792,48.2693603 L9.55643564,54.7555556 C9.63168317,55.5097643 10.3089109,56.0377104 11.0613861,55.9622896 Z"/>
            <rect width="9.105" height="4.299" x="4.442" y="33.037" fill="#A22E2E" transform="rotate(-6.062 8.994 35.187)"/>
          </g>
        </g>
        <g transform="translate(16.554 52.795)">
          <ellipse cx="10.535" cy="10.936" stroke="#FFF" stroke-linecap="round" stroke-linejoin="round" stroke-width="1.506" rx="10.459" ry="10.484"/>
          <polyline stroke="#FFF" stroke-linecap="round" stroke-linejoin="round" stroke-width="1.506" points="10.535 .453 10.535 10.936 18.661 4.224"/>
          <path stroke="#FFF" stroke-linecap="round" stroke-linejoin="round" stroke-width="1.506" d="M10.5346535,10.9360269 L21.0693069,10.9360269"/>
          <path fill="#FFF" fill-rule="nonzero" d="M17.4574257,3.6956229 C17.4574257,3.6956229 17.4574257,3.6956229 17.4574257,3.6956229 C17.3069307,3.6956229 17.2316832,3.62020202 17.1564356,3.62020202 C16.7049505,2.86599327 15.8772277,2.18720539 15.2752475,1.73468013 C13.9960396,0.905050505 12.5663366,0.527946128 11.0613861,0.603367003 C10.6851485,0.603367003 10.5346535,1.20673401 10.9861386,1.28215488 C10.9861386,1.28215488 11.0613861,1.28215488 11.0613861,1.28215488 C11.0613861,4.07272727 10.9861386,6.71245791 10.4594059,9.42760943 C10.3841584,9.65387205 10.609901,9.8047138 10.8356436,9.72929293 C12.4158416,8.8996633 13.9207921,7.99461279 15.350495,6.86329966 C16.0277228,6.33535354 17.3821782,5.65656566 17.4574257,4.75151515 C17.5326733,4.67609428 17.6079208,4.6006734 17.5326733,4.44983165 C17.5326733,4.44983165 17.5326733,4.37441077 17.5326733,4.37441077 C17.6079208,4.37441077 17.6079208,4.37441077 17.6831683,4.2989899 C18.209901,4.22356902 17.9089109,3.54478114 17.4574257,3.6956229 Z"/>
        </g>
        <g stroke-linecap="round" stroke-linejoin="round" transform="translate(18.812 83.717)">
          <path stroke="#FFF" stroke-width="1.506" d="M.0752475248.301683502L8.87920792.301683502M.0752475248 4.22356902L4.43960396 4.22356902"/>
        </g>
      </g>
    </g>
  </g>
</svg>
