<svg xmlns="http://www.w3.org/2000/svg" xmlns:xlink="http://www.w3.org/1999/xlink" width="288" height="164" viewBox="0 0 288 164">
  <defs>
    <rect id="exp_bear-writing-a" width="288" height="164"/>
  </defs>
  <g fill="none" fill-rule="evenodd">
    <mask id="exp_bear-writing-b" fill="#fff">
      <use xlink:href="#exp_bear-writing-a"/>
    </mask>
    <use fill="#FFF" xlink:href="#exp_bear-writing-a"/>
    <g mask="url(#exp_bear-writing-b)">
      <g transform="translate(66 12)">
        <g transform="translate(75.624 69.247)">
          <rect width="34.477" height="60.667" x="44.553" y="21.302" fill="#975E3A" rx="17.239" transform="rotate(38 61.792 51.636)"/>
          <rect width="16.035" height="24.113" x="59.206" y="20.403" fill="#975E3A" rx="8.017"/>
          <rect width="34.477" height="79.14" x="21.239" y="4.788" fill="#975E3A" rx="17.239" transform="scale(-1 1) rotate(38 0 -67.39)"/>
          <g transform="translate(48.721)">
            <g transform="rotate(-54 55.045 27.653)">
              <path fill="#FFCFC2" d="M1.02514316,7.13656657 L8.84634115,1.13223465 L15.3926952,7.73727377 L8.84634115,14.3423129 L1.02514316,8.33798097 C0.6963294,8.08555072 0.63259017,7.61196979 0.882777606,7.28020837 C0.9236012,7.22607418 0.97148995,7.17775613 1.02514316,7.13656657 Z"/>
              <rect width="52.477" height="13.209" x="8.846" y="1.132" fill="#FFD300"/>
              <rect width="52.477" height="6.605" x="8.846" y="1.132" fill="#FFE600"/>
              <path fill="#FF769D" d="M61.3218003,1.69835198 L64.2396299,1.69835198 C66.0989101,1.69835198 67.6061545,3.21910815 67.6061545,5.09505594 L67.6061545,10.3788177 C67.6061545,12.2547655 66.0989101,13.7755216 64.2396299,13.7755216 L61.3218003,13.7755216 L61.3218003,1.69835198 Z"/>
              <rect width="4.302" height="15.474" x="58.329" fill="#CFCFCF" rx="2.151"/>
              <path fill="#444" d="M3.95457146,4.44603788 L3.95457146,10.6288336 L0.55996641,8.13331016 C0.21935365,7.88291074 0.15332723,7.41313984 0.412492275,7.08404748 C0.454780764,7.03034881 0.504387931,6.98241948 0.55996641,6.9415613 L3.95457146,4.44603788 Z"/>
            </g>
            <rect width="22.819" height="24.731" x="22.819" y="24.731" fill="#975E3A" rx="9.274"/>
          </g>
        </g>
        <rect width="29.603" height="79.14" x="41.087" y="139.113" fill="#975E3A"/>
        <ellipse cx="105.535" cy="11.438" fill="#A56841" rx="9.559" ry="9.583"/>
        <ellipse cx="48.796" cy="11.438" fill="#A56841" rx="9.559" ry="9.583"/>
        <rect width="34.537" height="84.086" x="23.306" y="73.072" fill="#975E3A" rx="17.268" transform="rotate(38 40.575 115.115)"/>
        <rect width="29.603" height="79.14" x="84.875" y="139.113" fill="#975E3A"/>
        <path fill="#A56841" stroke="#A56841" stroke-linejoin="round" stroke-width="1.855" d="M67.882373,19.9556067 C69.584842,15.6095713 73.7753692,12.5362519 78.675056,12.5362519 C83.5747427,12.5362519 87.7652699,15.6095713 89.4677389,19.9556067 L67.882373,19.9556067 Z" transform="rotate(-80 78.675 16.246)"/>
        <path fill="#A56841" stroke="#A56841" stroke-linejoin="round" stroke-width="1.855" d="M65.7950786,14.8044379 C67.4975476,10.4584025 71.6880748,7.38508308 76.5877615,7.38508308 C81.4874483,7.38508308 85.6779755,10.4584025 87.3804444,14.8044379 L65.7950786,14.8044379 Z" transform="rotate(57 76.588 11.095)"/>
        <rect width="73.39" height="108.817" x="41.087" y="8.038" fill="#A56841" rx="24.731"/>
        <path fill="#A56841" d="M77.78223,70.7457653 L77.78223,70.7457653 C103.308588,70.7457653 124.001789,91.4389667 124.001789,116.965324 L124.001789,154.364916 C124.001789,179.891274 103.308588,200.584475 77.78223,200.584475 L77.78223,200.584475 C52.2558724,200.584475 31.562671,179.891274 31.562671,154.364916 L31.562671,116.965324 C31.562671,91.4389667 52.2558724,70.7457653 77.78223,70.7457653 Z"/>
        <rect width="24.669" height="24.113" x="86.108" y="13.602" fill="#B8764C" rx="8.656"/>
        <rect width="65.373" height="53.79" x="51.571" y="98.306" fill="#B8764C" rx="26.895"/>
        <path fill="#B8764C" stroke="#B8764C" stroke-linejoin="round" stroke-width="1.855" d="M73.8125002,106.309814 C75.5149692,101.963779 79.7054964,98.8904594 84.6051831,98.8904594 C89.5048699,98.8904594 93.6953971,101.963779 95.397866,106.309814 L73.8125002,106.309814 Z" transform="rotate(57 84.605 102.6)"/>
        <path fill="#B8764C" stroke="#B8764C" stroke-linejoin="round" stroke-width="1.855" d="M73.8125002,106.309814 C75.5149692,101.963779 79.7054964,98.8904594 84.6051831,98.8904594 C89.5048699,98.8904594 93.6953971,101.963779 95.397866,106.309814 L73.8125002,106.309814 Z" transform="scale(-1 1) rotate(57 0 -53.223)"/>
        <rect width="38.237" height="33.387" x="65.139" y="133.548" fill="#B8764C" rx="16.694"/>
        <rect width="34.537" height="79.14" x="25.068" y="81.976" fill="#975E3A" rx="17.268" transform="rotate(50 42.336 121.546)"/>
        <rect width="5.551" height="8.656" x="95.359" y="22.258" fill="#714B33" rx="2.775"/>
        <rect width="24.669" height="24.113" x="52.188" y="13.602" fill="#B8764C" rx="8.656"/>
        <rect width="5.551" height="8.656" x="62.056" y="22.258" fill="#714B33" rx="2.775"/>
        <path fill="#FAF7EC" d="M40.4781574,108.817204 L83.6333408,108.817204 C85.3406727,108.817204 86.7247387,110.20127 86.7247387,111.908602 L86.7247387,161.370968 C86.7247387,163.0783 85.3406727,164.462366 83.6333408,164.462366 L40.4781574,164.462366 C38.7708255,164.462366 37.3867596,163.0783 37.3867596,161.370968 L37.3867596,111.908602 C37.3867596,110.20127 38.7708255,108.817204 40.4781574,108.817204 Z"/>
        <path stroke="#E3DBD5" stroke-linecap="round" stroke-width="1.855" d="M42.0121951 128.438172L82.0993031 128.438172M42.0121951 135.857527L82.0993031 135.857527M42.0121951 143.276882L73.4651568 143.276882"/>
        <path fill="#975E3A" d="M52.823536,90.2688172 L71.904687,90.2688172 C76.0022835,90.2688172 79.3240418,93.5905755 79.3240418,97.688172 L79.3240418,105.725806 C79.3240418,114.262466 72.403712,121.182796 63.8670526,121.182796 L60.8611704,121.182796 C52.324511,121.182796 45.4041812,114.262466 45.4041812,105.725806 L45.4041812,97.688172 C45.4041812,93.5905755 48.7259395,90.2688172 52.823536,90.2688172 Z" transform="rotate(-180 62.364 105.726)"/>
        <path fill="#CE9969" stroke="#CE9969" stroke-linejoin="round" stroke-width="1.855" d="M75.7893978,70.2905955 C77.0920025,66.9971284 80.2982874,64.6681376 84.0471692,64.6681376 C87.7960511,64.6681376 91.0023359,66.9971284 92.3049406,70.2905955 L75.7893978,70.2905955 Z" transform="rotate(109 84.047 67.48)"/>
        <path stroke="#B8764C" stroke-width="3.71" d="M60.2055749,29.7253893 C63.7007499,29.4162495 65.7564991,30.6012854 66.3728223,33.2804968"/>
        <path fill="#CE9969" d="M79.9749728,38.9516129 L85.4586377,38.9516129 C92.6294317,38.9516129 98.4425087,44.7646899 98.4425087,51.9354839 L98.4425087,67.0833333 C98.4425087,69.8150644 96.2280032,72.0295699 93.4962722,72.0295699 L66.3728223,72.0295699 L66.3728223,52.5537634 C66.3728223,45.0415031 72.4627125,38.9516129 79.9749728,38.9516129 Z" transform="matrix(1 0 0 -1 0 110.981)"/>
        <path fill="#B15249" d="M79.3243429,45.6313331 L79.5581113,45.6313331 C84.6702091,45.6313331 89.3065181,48.6310659 91.40156,53.294149 L93.5550776,58.0873853 C94.254777,59.6447558 93.5594972,61.4744725 92.0021267,62.174172 C91.5390159,62.3822395 91.0317879,62.4730442 90.5252558,62.4385633 L70.6898955,61.0883223 L70.6898955,54.2657805 C70.6898955,49.4971069 74.5556693,45.6313331 79.3243429,45.6313331 Z" transform="matrix(1 0 0 -1 0 108.078)"/>
        <path fill="#CE5C51" d="M70.7678464,54.9769907 C72.4096616,53.8387717 74.4015555,53.172043 76.5487805,53.172043 C81.1887158,53.172043 85.1033348,56.2853207 86.3275828,60.5418672 C84.3291266,61.7630278 81.997801,62.4462366 79.5581113,62.4462366 L79.3243429,62.4462366 C74.9508319,62.4462366 71.3367807,59.1946023 70.7678464,54.9769907 Z"/>
        <path fill="#E5AE7C" d="M77.9655642,25.3494624 L98.5675368,25.3494624 C104.970031,25.3494624 110.160279,30.5397097 110.160279,36.9422043 L110.160279,43.5887097 C110.160279,46.3204407 107.945773,48.5349462 105.214042,48.5349462 L75.0287363,48.5349462 C70.248207,48.5349462 66.3728223,44.6595615 66.3728223,39.8790323 L66.3728223,36.9422043 C66.3728223,30.5397097 71.5630697,25.3494624 77.9655642,25.3494624 Z"/>
        <path fill="#5F3F2A" d="M92.9044247,25.3494624 L97.8133453,25.3494624 C100.545076,25.3494624 102.759582,27.5639679 102.759582,30.2956989 L102.759582,34.6236559 C102.759582,35.648055 101.929142,36.4784946 100.904743,36.4784946 L89.8130269,36.4784946 C88.7886277,36.4784946 87.9581882,35.648055 87.9581882,34.6236559 L87.9581882,30.2956989 C87.9581882,27.5639679 90.1726937,25.3494624 92.9044247,25.3494624 Z"/>
        <rect width="4.317" height="6.801" x="93.509" y="31.532" fill="#5F3F2A" rx="2.159"/>
        <path fill="#FFF" d="M79.3240418 48.2258065L85.4912892 48.2258065 85.4912892 50.0884193C85.4912892 51.7914577 84.1107038 53.172043 82.4076655 53.172043L82.4076655 53.172043C80.7046272 53.172043 79.3240418 51.7914577 79.3240418 50.0884193L79.3240418 48.2258065zM96.5923345 48.2258065L102.759582 48.2258065 102.759582 50.0884193C102.759582 51.7914577 101.378997 53.172043 99.6759582 53.172043L99.6759582 53.172043C97.9729198 53.172043 96.5923345 51.7914577 96.5923345 50.0884193L96.5923345 48.2258065z"/>
      </g>
    </g>
  </g>
</svg>
