<?xml version="1.0" encoding="UTF-8"?>
<svg width="124px" height="124px" viewBox="0 0 124 124" version="1.1" xmlns="http://www.w3.org/2000/svg" xmlns:xlink="http://www.w3.org/1999/xlink">
    <!-- Generator: Sketch 52.6 (67491) - http://www.bohemiancoding.com/sketch -->
    <title>exp_two_fish</title>
    <desc>Created with Sketch.</desc>
    <g id="exp_two_fish" stroke="none" stroke-width="1" fill="none" fill-rule="evenodd">
        <rect fill="#FFFFFF" x="0" y="0" width="124" height="124"></rect>
        <g id="Group-2" transform="translate(49.000000, 62.000000)">
            <g id="Group-10" transform="translate(1.126131, 0.000000)">
                <path d="M13.5549595,6.99586629 C13.5549595,3.13215603 16.735608,0 20.6610641,0 L27.7671686,0 L27.7671686,17.9947165 L13.5549595,17.9947165 L13.5549595,6.99586629 Z" id="Rectangle-137" fill="#1CB0F6"></path>
                <path d="M50.6387749,24.3678453 C53.4343016,23.4265418 55.4435758,20.8177735 55.4435758,17.7468689 L55.4435758,6.74801869 L48.3374713,6.74801869 C44.4120152,6.74801869 41.2313667,9.88017471 41.2313667,13.743885 L41.2313667,34.9918056 C41.2313667,38.8555158 44.4120152,41.9876718 48.3374713,41.9876718 L55.4435758,41.9876718 L55.4435758,30.9888216 C55.4435758,27.917917 53.4343016,25.3091487 50.6387749,24.3678453 Z" id="Combined-Shape" fill="#1CB0F6"></path>
                <g id="Rectangle-4" transform="translate(0.090761, 5.988684)" fill="#47D7FF">
                    <path d="M6.06268665,30.3734062 L12.3375182,30.3734062 L12.3375182,19.7777849 C12.3375182,17.6615697 10.6219868,15.9460383 8.50577156,15.9460383 L0.0481817943,15.9460383 C0.712235221,7.02863262 8.15777338,1.66928481e-15 17.2449366,0 L23.8956686,3.55271368e-15 C33.4197842,1.80316204e-15 41.1406053,7.72082113 41.1406053,17.2449366 C41.1406053,26.7690522 33.4197842,34.4898733 23.8956686,34.4898733 L17.2449366,34.4898733 C12.9782743,34.4898733 9.07351634,32.9403763 6.06268665,30.3734062 Z" id="Combined-Shape"></path>
                </g>
                <path d="M30.3455182,44.5099021 C32.3903335,42.4962716 32.3305507,39.1726606 30.2119895,37.0864089 C28.0934283,35.0001573 20.9926021,34.6339006 20.6545852,34.9667625 C20.3165683,35.2996244 20.6884972,42.2921581 22.8070583,44.3784097 C24.9256195,46.4646613 28.300703,46.5235325 30.3455182,44.5099021 Z" id="Oval-4" fill="#1CB0F6"></path>
                <g id="Group-9" transform="translate(15.027898, 16.495157)">
                    <ellipse id="Oval-2" fill="#FFFFFF" cx="5.98408804" cy="5.99823883" rx="5.98408804" ry="5.99823883"></ellipse>
                    <ellipse id="Oval-2" fill="#777777" cx="5.98408804" cy="5.99823883" rx="2.99204402" ry="2.99911942"></ellipse>
                </g>
            </g>
            <path d="M0,21.2613843 L4.95109489,21.2613843 C9.42266635,21.2613843 13.0475912,24.8310266 13.0475912,29.2344035 L13.0475912,33.4107468 C13.0475912,36.1633367 11.8909489,37.2074226 9.19211679,37.2074226 L3.08437956,37.2074226" id="Rectangle-35" stroke="#1CB0F6" stroke-width="4.59809603" stroke-linecap="round" stroke-linejoin="round"></path>
        </g>
        <g id="Group-2-Copy" transform="translate(43.000000, 35.500000) scale(-1, 1) translate(-43.000000, -35.500000) translate(20.000000, 17.000000)">
            <g id="Group-10" transform="translate(0.908808, 0.000000)">
                <path d="M10.9390901,5.62710984 C10.9390901,2.51934289 13.5059293,0 16.6738412,0 L22.4085922,0 L22.4085922,14.4740111 L10.9390901,14.4740111 L10.9390901,5.62710984 Z" id="Rectangle-137" fill="#1CB0F6"></path>
                <path d="M40.8663798,19.6002234 C43.1224188,18.843088 44.7439384,16.7447309 44.7439384,14.2746554 L44.7439384,5.42775416 L39.0091873,5.42775416 C35.8412754,5.42775416 33.2744363,7.94709705 33.2744363,11.054864 L33.2744363,28.1455827 C33.2744363,31.2533497 35.8412754,33.7726926 39.0091873,33.7726926 L44.7439384,33.7726926 L44.7439384,24.9257913 C44.7439384,22.4557159 43.1224188,20.3573588 40.8663798,19.6002234 Z" id="Combined-Shape" fill="#1CB0F6"></path>
                <g id="Rectangle-4" transform="translate(0.073246, 4.816985)" fill="#47D7FF">
                    <path d="M4.87650883,24.4307832 L9.95659367,24.4307832 L9.95659367,15.8915586 C9.95659367,14.1985863 8.58416853,12.8261612 6.89119632,12.8261612 L0.0387549215,12.8261612 C0.572884851,5.65346537 6.56168728,1.34268561e-15 13.8709273,0 L19.3302629,1.77635684e-15 C26.9909645,3.69108782e-16 33.2011902,6.21022569 33.2011902,13.8709273 C33.2011902,21.5316289 26.9909645,27.7418546 19.3302629,27.7418546 L13.8709273,27.7418546 C10.4390467,27.7418546 7.29826315,26.4955201 4.87650883,24.4307832 Z" id="Combined-Shape"></path>
                </g>
                <path d="M24.4893656,35.801443 C26.1395674,34.1817837 26.0913216,31.5084444 24.3816056,29.8303724 C22.6718895,28.1523004 16.9413982,27.8577027 16.6686126,28.1254394 C16.3958271,28.3931761 16.6959802,34.0176054 18.4056962,35.6956774 C20.1154122,37.3737493 22.8391638,37.4211022 24.4893656,35.801443 Z" id="Oval-4" fill="#1CB0F6"></path>
                <g id="Group-9" transform="translate(12.127777, 13.267844)">
                    <ellipse id="Oval-2" fill="#FFFFFF" cx="4.82926403" cy="4.82467037" rx="4.82926403" ry="4.82467037"></ellipse>
                    <ellipse id="Oval-2" fill="#777777" cx="4.82926403" cy="4.82467037" rx="2.41463202" ry="2.41233518"></ellipse>
                </g>
            </g>
            <path d="M0,17.1015483 L3.99562044,17.1015483 C7.60425706,17.1015483 10.529635,19.9727823 10.529635,23.5146289 L10.529635,26.8738616 C10.529635,29.0879013 9.59620438,29.9277095 7.41819951,29.9277095 L2.48914842,29.9277095" id="Rectangle-35" stroke="#1CB0F6" stroke-width="3.67847682" stroke-linecap="round" stroke-linejoin="round"></path>
        </g>
    </g>
</svg>