<svg xmlns="http://www.w3.org/2000/svg" xmlns:xlink="http://www.w3.org/1999/xlink" width="124" height="124" viewBox="0 0 124 124">
  <defs>
    <rect id="exp_telephone-a" width="124" height="124"/>
    <path id="exp_telephone-c" d="M66.6666667,46.6666667 C66.6666667,48.5076158 65.1742825,50 63.3333333,50 L3.33333333,50 C1.49238417,50 -2.86403474e-14,48.5076158 -2.88657986e-14,46.6666667 L0,40 C-1.12725625e-16,39.0795254 0.746192084,38.3333333 1.66666667,38.3333333 L65,38.3333333 C65.9204746,38.3333333 66.6666667,39.0795254 66.6666667,40 L66.6666667,46.6666667 Z"/>
  </defs>
  <g fill="none" fill-rule="evenodd">
    <mask id="exp_telephone-b" fill="#fff">
      <use xlink:href="#exp_telephone-a"/>
    </mask>
    <use fill="#FFF" xlink:href="#exp_telephone-a"/>
    <g mask="url(#exp_telephone-b)">
      <g transform="translate(12 25.75)">
        <g transform="translate(16.745 22.5)">
          <path fill="#FC4848" d="M18.8711045,0 L47.7955622,8.8817842e-16 C49.132254,3.01707374e-15 50.3396711,0.79850281 50.8629066,2.02853108 L66.4006778,38.5549062 C66.5761988,38.967523 66.6666667,39.4113111 66.6666667,39.8597085 L66.6666667,46.6666667 C66.6666667,48.5076158 65.1742825,50 63.3333333,50 L3.33333333,50 C1.49238417,50 -2.86403474e-14,48.5076158 -2.88657986e-14,46.6666667 L-4.26325641e-14,39.8597085 C-4.2687477e-14,39.4113111 0.0904678918,38.967523 0.265988849,38.5549062 L15.80376,2.02853108 C16.3269956,0.79850281 17.5344127,-6.42632119e-16 18.8711045,-8.8817842e-16 Z"/>
          <path fill="#E24040" d="M51.7724374,4.16666667 L14.8942293,4.16666667 L15.80376,2.02853108 C16.3269956,0.79850281 17.5344127,-6.42632119e-16 18.8711045,-8.8817842e-16 L47.7955622,8.8817842e-16 C49.132254,3.01707374e-15 50.3396711,0.79850281 50.8629066,2.02853108 L51.7724374,4.16666667 Z"/>
          <use fill="#E24040" xlink:href="#exp_telephone-c"/>
        </g>
        <rect width="47.5" height="3.333" x="25.833" y="64.401" fill="#FC4848" rx="1.667"/>
        <rect width="4.167" height="10.833" x="47.995" y="10" fill="#EE4B4B"/>
        <path stroke="#EE4B4B" stroke-width="4.167" d="M72.1614583,6.66666667 L70.3904713,16.70226 C69.9688324,19.0915472 67.8927588,20.8333333 65.4665535,20.8333333 L34.6896965,20.8333333 C32.2634912,20.8333333 30.1874176,19.0915472 29.7657787,16.70226 L27.9947917,6.66666667"/>
        <path fill="#E24040" d="M26.328125,15.9358724 L26.328125,23.2845862 L19.6614583,23.2845862 L19.6614583,12.6025391 L6.40835422,12.6025391 C14.9540319,5.33256081 31.3078439,0.416666667 50.078125,0.416666667 C68.8484061,0.416666667 85.2022181,5.33256081 93.7478899,12.6025391 L80.4947917,12.6025391 L80.4947917,23.2845862 L73.828125,23.2845862 L73.828125,15.9358724 C73.828125,14.0949232 72.3357408,12.6025391 70.4947917,12.6025391 L29.6614583,12.6025391 C27.8205092,12.6025391 26.328125,14.0949232 26.328125,15.9358724 Z"/>
        <path fill="#FC4848" d="M14.2447917,8.33333333 L14.2447917,8.33333333 C20.9182324,8.33333333 26.328125,13.7432259 26.328125,20.4166667 L26.328125,23.3333333 L2.16145833,23.3333333 L2.16145833,20.4166667 C2.16145833,13.7432259 7.57135094,8.33333333 14.2447917,8.33333333 Z"/>
        <rect width="27.5" height="5" x=".495" y="22.917" fill="#E24040" rx="2.5"/>
        <path fill="#FC4848" d="M85.9114583,8.33333333 L85.9114583,8.33333333 C92.5848991,8.33333333 97.9947917,13.7432259 97.9947917,20.4166667 L97.9947917,23.3333333 L73.828125,23.3333333 L73.828125,20.4166667 C73.828125,13.7432259 79.2380176,8.33333333 85.9114583,8.33333333 Z"/>
        <rect width="27.5" height="5" x="72.161" y="22.917" fill="#E24040" rx="2.5"/>
        <g transform="translate(37.5 30.833)">
          <circle cx="12.578" cy="12.083" r="12.917" fill="#676767" stroke="#555454" stroke-width="1.667"/>
          <g fill="#C9C1C1" transform="translate(1.745 1.25)">
            <circle cx="10.833" cy="1.313" r="1.313"/>
            <circle cx="10.833" cy="20.354" r="1.313"/>
            <circle cx="15.593" cy="2.589" r="1.313" transform="rotate(30 15.593 2.589)"/>
            <circle cx="6.073" cy="19.078" r="1.313" transform="rotate(30 6.073 19.078)"/>
            <circle cx="2.589" cy="15.593" r="1.313" transform="rotate(-120 2.589 15.593)"/>
            <circle cx="19.078" cy="6.073" r="1.313" transform="rotate(-120 19.078 6.073)"/>
            <circle cx="1.313" cy="10.833" r="1.313" transform="rotate(-90 1.313 10.833)"/>
            <circle cx="2.589" cy="6.073" r="1.313" transform="rotate(-60 2.589 6.073)"/>
            <circle cx="6.073" cy="2.589" r="1.313" transform="rotate(-30 6.073 2.589)"/>
            <circle cx="15.593" cy="19.078" r="1.313" transform="rotate(-30 15.593 19.078)"/>
          </g>
          <circle cx="12.578" cy="12.083" r="6.25" fill="#777"/>
          <rect width="9.167" height="2.5" x="7.995" y="10.833" fill="#555454" rx="1.25"/>
          <path fill="#C9C1C1" d="M22.3894128,16.25 L22.6105872,16.25 C23.0252958,16.25 23.3768964,16.5549416 23.4355451,16.9654822 L24.0307832,21.1321489 C24.0958706,21.5877605 23.7792881,22.0098705 23.3236764,22.0749579 C23.2846403,22.0805345 23.2452577,22.0833333 23.2058253,22.0833333 L21.7941747,22.0833333 C21.3339374,22.0833333 20.9608414,21.7102373 20.9608414,21.25 C20.9608414,21.2105676 20.9636402,21.1711849 20.9692168,21.1321489 L21.5644549,16.9654822 C21.6231036,16.5549416 21.9747042,16.25 22.3894128,16.25 Z" transform="rotate(-45 22.5 19.167)"/>
        </g>
        <rect width="30.833" height="3.333" x="34.167" y="6.851" fill="#FC4848" rx="1.667"/>
      </g>
    </g>
  </g>
</svg>
