<svg xmlns="http://www.w3.org/2000/svg" xmlns:xlink="http://www.w3.org/1999/xlink" width="288" height="164" viewBox="0 0 288 164">
  <defs>
    <rect id="exp_cat_next_to_you-a" width="288" height="164"/>
  </defs>
  <g fill="none" fill-rule="evenodd">
    <mask id="exp_cat_next_to_you-b" fill="#fff">
      <use xlink:href="#exp_cat_next_to_you-a"/>
    </mask>
    <use fill="#FFF" xlink:href="#exp_cat_next_to_you-a"/>
    <g mask="url(#exp_cat_next_to_you-b)">
      <g transform="translate(47 28)">
        <g transform="translate(0 .924)">
          <g fill="#CD7555" fill-rule="nonzero" transform="rotate(-90 104.185 -29.67)">
            <path d="M16.4498113,9.11065071 L4.9395026,9.11065071 C2.4680833,9.11065071 0.445911874,7.08364657 0.445911874,4.60632092 C0.445911874,2.12899527 2.4680833,0.101991135 4.9395026,0.101991135 L16.4498113,0.101991135 C18.9212306,0.101991135 20.9434021,2.12899527 20.9434021,4.60632092 C20.9434021,7.08364657 18.9212306,9.11065071 16.4498113,9.11065071 Z"/>
            <path d="M16.4498113,15.7501064 L4.9395026,15.7501064 C2.4680833,15.7501064 0.445911874,13.7231022 0.445911874,11.2457766 C0.445911874,8.76845095 2.4680833,6.74144681 4.9395026,6.74144681 L16.4498113,6.74144681 C18.9212306,6.74144681 20.9434021,8.76845095 20.9434021,11.2457766 C20.9434021,13.7231022 18.9212306,15.7501064 16.4498113,15.7501064 Z"/>
            <path d="M16.4498113,22.3901194 L4.9395026,22.3901194 C2.4680833,22.3901194 0.445911874,20.3631152 0.445911874,17.8857896 C0.445911874,15.4084639 2.4680833,13.3814598 4.9395026,13.3814598 L16.4498113,13.3814598 C18.9212306,13.3814598 20.9434021,15.4084639 20.9434021,17.8857896 C20.9434021,20.3631152 18.9212306,22.3901194 16.4498113,22.3901194 Z"/>
          </g>
          <path fill="#CD7555" fill-rule="nonzero" d="M108.644037,124.609202 C104.469034,124.609202 100.488076,122.968983 97.4801164,119.953278 L66.3074292,88.7060928 C63.0748461,85.4657843 63.0748461,80.2118475 66.3074292,76.971539 C69.5400123,73.7312305 74.7814228,73.7306732 78.0140059,76.971539 L108.533393,107.563306 L134.442986,62.631474 L142.0385,82.5832807 L122.408925,116.663925 C119.925274,120.975419 115.676879,123.820582 110.752945,124.470427 C110.047381,124.563501 109.342373,124.609202 108.644037,124.609202 Z"/>
          <path fill="#F2B0B3" fill-rule="nonzero" d="M93.4452255,92.4396371 L78.0140059,76.9720963 C74.7808668,73.7317878 69.5400123,73.7317878 66.3068732,76.9720963 C63.0742901,80.2124048 63.0742901,85.4663416 66.3068732,88.7066501 L83.2871084,105.727466 L93.4452255,92.4396371 Z"/>
          <path fill="#F9C9CA" fill-rule="nonzero" d="M88.274427,135.083635 L88.274427,100.392159 C88.274427,82.7794604 73.8984951,68.369172 56.327788,68.369172 C38.757081,68.369172 24.3811491,82.7794604 24.3811491,100.392159 L24.3811491,135.083635 L88.274427,135.083635 Z"/>
          <path fill="#FFF" fill-rule="nonzero" d="M56.327232,99.4547323 C67.7635928,99.4547323 77.0676942,90.1283954 77.0676942,78.6652606 L77.0676942,76.0954184 C71.4754477,71.2884592 64.2274338,68.3686147 56.327788,68.3686147 C48.4281423,68.3686147 41.1801283,71.2879019 35.5878819,76.0948611 L35.5878819,78.6652606 C35.5873259,90.1289527 44.8914273,99.4547323 56.327232,99.4547323 Z"/>
          <path fill="#CD7555" fill-rule="nonzero" d="M56.327232,96.6095697 C66.1734332,96.6095697 74.229315,88.5344356 74.229315,78.6647033 L74.229315,73.9079037 C69.1141164,70.4156826 62.9480782,68.3680573 56.327232,68.3680573 C49.7069419,68.3680573 43.5409037,70.4156826 38.4257051,73.9079037 L38.4257051,78.6647033 C38.4257051,88.5349929 46.4815868,96.6095697 56.327232,96.6095697 Z"/>
          <g fill-rule="nonzero" transform="translate(0 67.994)">
            <path fill="#CD7555" d="M61.7938225,67.0895455 L51.1519855,67.0895455 C48.9441101,67.0895455 47.1382226,65.2787849 47.1382226,63.0661903 C47.1382226,60.8530384 48.9446661,59.0428351 51.1519855,59.0428351 L61.7938225,59.0428351 C64.0016979,59.0428351 65.8075853,60.8535957 65.8075853,63.0661903 C65.8075853,65.2787849 64.0016979,67.0895455 61.7938225,67.0895455 Z"/>
            <path fill="#D98D73" d="M61.5308346,67.0895455 L15.1521077,67.0895455 C9.74890124,67.0895455 4.71988266,64.1719303 2.02717543,59.4758794 C-0.664419812,54.7792713 -0.646627817,48.9551874 2.07443541,44.2752991 L27.7916521,0.553427305 L44.0907875,10.1862949 L21.7762898,48.1230957 L42.7335919,48.1230957 C47.9088384,48.1230957 52.6737571,50.9470798 55.1679724,55.4926519 L61.5308346,67.0895455 Z"/>
            <polygon fill="#F9C9CA" points="22.167 10.117 15.035 22.241 32.236 40.52 44.697 20.922"/>
          </g>
          <g transform="translate(21.684)">
            <path fill="#14202D" fill-rule="nonzero" d="M11.6376327 98.6505071L19.1475226 98.6505071C21.7145738 98.6505071 23.7956813 96.5644261 23.7956813 93.99124L23.7956813 52.3086336.482051863 52.3086336.482051863 87.468266C.482607863 93.6440242 5.47715445 98.6505071 11.6376327 98.6505071zM35.0424461 75.0626885L49.52513 75.0626885C58.6974594 75.0626885 66.2023452 67.539867 66.2023452 58.345617L66.2023452 21.4259409C66.2023452 18.3506017 63.6925619 15.8348203 60.6245548 15.8348203L35.0424461 15.8348203C31.9744389 15.8348203 29.4646556 18.3506017 29.4646556 21.4259409L29.4646556 69.4710106C29.4646556 72.5469072 31.9749949 75.0626885 35.0424461 75.0626885z"/>
            <path fill="#14202D" fill-rule="nonzero" d="M6.06039828,75.0626885 L31.642507,75.0626885 C34.7105142,75.0626885 37.2202975,72.5469072 37.2202975,69.471568 L37.2202975,21.4264982 C37.2202975,18.351159 34.7105142,15.8353777 31.642507,15.8353777 L10.2771011,15.8353777 C4.89001861,15.8353777 0.482607863,20.2533215 0.482607863,25.6532784 L0.482607863,69.471568 C0.482607863,72.5469072 2.99239115,75.0626885 6.06039828,75.0626885 Z"/>
            <rect width="23.081" height="13.608" x="29.465" y=".442" fill="#14202D" fill-rule="nonzero" transform="rotate(-180 41.005 7.246)"/>
            <path fill="#14202D" fill-rule="nonzero" d="M52.5458771,45.0923428 C56.6675039,45.0923428 60.020739,41.7305366 60.020739,37.599617 L60.020739,7.93468735 C60.020739,3.8032104 56.6669479,0.441961584 52.5458771,0.441961584 C48.4236943,0.441961584 45.0699032,3.80376773 45.0699032,7.93468735 L45.0699032,37.599617 C45.0699032,41.731094 48.4236943,45.0923428 52.5458771,45.0923428 Z"/>
            <path fill="#4D4C4D" fill-rule="nonzero" d="M52.5453211,41.3654864 C54.6169765,41.3654864 56.301656,39.6767807 56.301656,37.6001743 L56.301656,7.93524468 C56.301656,5.8586383 54.6169765,4.16993262 52.5453211,4.16993262 C50.4736657,4.16993262 48.7889862,5.8586383 48.7889862,7.93524468 L48.7889862,37.6001743 C48.7884302,39.6767807 50.4736657,41.3654864 52.5453211,41.3654864 Z"/>
            <path fill="#CD7555" fill-rule="nonzero" d="M34.6432382 89.2868292C40.6096725 89.2868292 45.4907951 84.393484 45.4907951 78.4133481L45.4907951 46.917594C45.4907951 40.9369007 40.6091165 36.0441129 34.6432382 36.0441129 28.6768039 36.0441129 23.7956813 40.937458 23.7956813 46.917594L23.7956813 78.4133481C23.7956813 84.3940414 28.6773599 89.2868292 34.6432382 89.2868292zM18.0416389 44.4620041C16.7650632 49.1396631 11.8678166 51.9157169 7.10345399 50.6622849 2.33909134 49.4088528-.488167862 44.600779.788407777 39.92312 2.06498341 35.245461 6.96223003 32.4694072 11.7265927 33.7228392 16.4909553 34.9762713 19.3182145 39.7843452 18.0416389 44.4620041z"/>
            <g fill-rule="nonzero" transform="translate(47.816 32.882)">
              <path fill="#F69B8A" d="M18.0800029,11.5796164 C16.8034272,16.2572754 11.9061806,19.0333292 7.14181798,17.7798972 C2.37745533,16.5264651 -0.449803873,11.7183913 0.826771766,7.04073227 C2.1033474,2.36307329 7.00059402,-0.412980496 11.7649567,0.840451537 C16.5293193,2.09388357 19.3565785,6.90195745 18.0800029,11.5796164 Z"/>
              <path fill="#CD7555" d="M18.9117786,11.5796164 C17.635203,16.2572754 12.7379564,19.0333292 7.97359374,17.7798972 C3.20923109,16.5264651 0.381971892,11.7183913 1.65854753,7.04073227 C2.93512317,2.36307329 7.83236978,-0.412980496 12.5967324,0.840451537 C17.3610951,2.09388357 20.1883543,6.90195745 18.9117786,11.5796164 Z"/>
            </g>
            <path fill="#D98D73" fill-rule="nonzero" d="M34.6437942,3.72072577 C20.6859741,3.72072577 9.26629337,15.1682553 9.26629337,29.1588753 L9.26629337,49.6239817 C9.26629337,63.615159 20.6859741,75.0621312 34.6437942,75.0621312 C48.6016142,75.0621312 60.021295,63.6146017 60.021295,49.6239817 L60.021295,29.1588753 C60.020739,15.1682553 48.6010582,3.72072577 34.6437942,3.72072577 Z"/>
            <g fill="#A4614C" fill-rule="nonzero" transform="translate(28.356 33.997)">
              <path d="M16.9335312 11.9747624L16.9830152 11.9747624C18.2912828 11.9747624 19.3615825 10.9019048 19.3615825 9.59051064L19.3615825 2.60272459C19.3615825 1.29133038 18.2912828.218472813 16.9830152.218472813L16.9335312.218472813C15.6252636.218472813 14.5549639 1.29133038 14.5549639 2.60272459L14.5549639 9.59051064C14.5549639 10.9019048 15.6252636 11.9747624 16.9335312 11.9747624zM2.65378725 11.9747624L2.70327123 11.9747624C4.01153886 11.9747624 5.08183856 10.9019048 5.08183856 9.59051064L5.08183856 2.60272459C5.08183856 1.29133038 4.01153886.218472813 2.70327123.218472813L2.65378725.218472813C1.34551962.218472813.275219922 1.29133038.275219922 2.60272459L.275219922 9.59051064C.275219922 10.9019048 1.34551962 11.9747624 2.65378725 11.9747624z"/>
            </g>
            <path fill="#CD7555" fill-rule="nonzero" d="M37.8535813,49.1680869 L37.9258613,49.1680869 C39.8268247,49.1680869 41.3819563,47.6092388 41.3819563,45.7037323 L41.3819563,37.0272405 C41.3819563,35.121734 39.8268247,33.5628859 37.9258613,33.5628859 L37.8535813,33.5628859 C35.9526178,33.5628859 34.3974863,35.121734 34.3974863,37.0272405 L34.3974863,45.7037323 C34.3974863,47.6092388 35.9526178,49.1680869 37.8535813,49.1680869 Z"/>
            <path fill="#14202D" fill-rule="nonzero" d="M42.319928,31.9594515 L0.482607863,45.3492713 L0.482607863,23.73774 C0.482607863,10.8718091 10.8875889,0.441961584 23.7228453,0.441961584 L48.7884302,0.441961584 L48.7884302,23.0828788 C48.7884302,27.1368871 46.1730069,30.7260833 42.319928,31.9594515 Z"/>
            <path fill="#41C2E6" fill-rule="nonzero" d="M7.28971393,55.4569829 C8.37669363,55.4569829 9.26573737,54.5658144 9.26573737,53.476237 L9.26573737,47.429779 C9.26573737,46.3402015 8.37669363,45.4490331 7.28971393,45.4490331 C6.20273424,45.4490331 5.31369049,46.3402015 5.31369049,47.429779 L5.31369049,53.476237 C5.31369049,54.5658144 6.20329024,55.4569829 7.28971393,55.4569829 Z"/>
            <path fill="#37B5D8" fill-rule="nonzero" d="M61.9967624,55.4569829 C63.0837421,55.4569829 63.9727859,54.5658144 63.9727859,53.476237 L63.9727859,47.429779 C63.9727859,46.3402015 63.0837421,45.4490331 61.9967624,45.4490331 C60.9097827,45.4490331 60.020739,46.3402015 60.020739,47.429779 L60.020739,53.476237 C60.020739,54.5658144 60.9103387,55.4569829 61.9967624,55.4569829 Z"/>
            <path stroke="#14202D" stroke-linecap="round" stroke-width="3.727" d="M52.5475451,29.3990839 C51.2409455,28.4482813 48.8562622,27.2032092 45.842187,27.7878469"/>
            <g fill-rule="nonzero" transform="translate(22.796 49.602)">
              <path fill="#8C3433" d="M23.4782053,2.17413889 L23.4782053,8.38723818 C23.4782053,13.000247 19.7129744,16.773919 15.1115197,16.773919 L8.58408157,16.773919 C3.98207087,16.773919 0.217395938,12.9996897 0.217395938,8.38723818 L0.217395938,2.17413889 C0.217395938,1.1709474 1.02859971,0.357247636 2.02995542,0.357247636 L21.6662019,0.357247636 C22.6664456,0.357247636 23.4782053,1.17039007 23.4782053,2.17413889 Z"/>
              <path fill="#FFF" d="M10.3988651,0.357247636 L13.2956242,0.357247636 L21.4215619,0.357247636 L21.4215619,3.45042139 C21.4215619,4.33713121 20.7043221,5.05664243 19.8191704,5.05664243 L13.2956242,5.05664243 L10.3988651,5.05664243 L3.8753189,5.05664243 C2.99016715,5.05664243 2.27292736,4.33768853 2.27292736,3.45042139 L2.27292736,0.357247636 L10.3988651,0.357247636 Z"/>
              <path fill="#EC4A4E" d="M8.58352557,16.773919 C6.44237017,16.773919 4.48302673,15.956318 2.99906315,14.618172 C4.2322708,10.9030195 7.72617381,8.22226891 11.8466886,8.22226891 C15.9672035,8.22226891 19.4611065,10.9024622 20.6943141,14.618172 C19.2103506,15.956318 17.2510071,16.773919 15.1098517,16.773919 L8.58352557,16.773919 Z"/>
            </g>
          </g>
        </g>
        <g transform="matrix(-1 0 0 1 193.85 52.715)">
          <path stroke="#9DB5D0" stroke-linecap="round" stroke-linejoin="round" stroke-width="10.935" d="M1.89923532,72.6836653 C5.05365439,76.362474 9.63602895,78.596714 14.7317346,78.596714 C24.2507256,78.596714 31.963948,70.8200879 31.963948,61.2271334" transform="rotate(8 16.932 69.912)"/>
          <rect width="13.2" height="40.293" x="57.89" y="28.558" fill="#9DB5D0" rx="6.6" transform="rotate(-30 64.49 48.705)"/>
          <path fill="#ACC1D9" d="M32.9380852,69.0449221 L33.0135589,69.0449221 C35.4226124,69.0449221 37.3755361,70.9978458 37.3755361,73.4068992 L37.3755361,85.7481809 C37.3755361,88.1572344 35.4226124,90.1101581 33.0135589,90.1101581 L32.9380852,90.1101581 C30.5290317,90.1101581 28.576108,88.1572344 28.576108,85.7481809 L28.576108,73.4068992 C28.576108,70.9978458 30.5290317,69.0449221 32.9380852,69.0449221 Z" transform="scale(-1 1) rotate(-90 0 112.505)"/>
          <path fill="#ACC1D9" d="M65.9359406,69.0449221 L66.0114143,69.0449221 C68.4204678,69.0449221 70.3733915,70.9978458 70.3733915,73.4068992 L70.3733915,85.7481809 C70.3733915,88.1572344 68.4204678,90.1101581 66.0114143,90.1101581 L65.9359406,90.1101581 C63.5268871,90.1101581 61.5739634,88.1572344 61.5739634,85.7481809 L61.5739634,73.4068992 C61.5739634,70.9978458 63.5268871,69.0449221 65.9359406,69.0449221 Z" transform="scale(-1 1) rotate(-90 0 145.503)"/>
          <path fill="#ACC1D9" d="M42.3021004,27.789805 L55.0844781,27.789805 C60.6464442,27.789805 65.4397239,31.7052265 66.549764,37.1552978 L72.5916941,66.8199473 C74.1329989,74.3874405 69.2478079,81.7715802 61.6803148,83.3128849 C60.7618348,83.4999558 59.8268728,83.5942022 58.8895356,83.5942022 L38.4970429,83.5942022 C30.7741824,83.5942022 24.5135671,77.3335869 24.5135671,69.6107265 C24.5135671,68.6733893 24.6078135,67.7384273 24.7948844,66.8199473 L30.8368145,37.1552978 C31.9468546,31.7052265 36.7401343,27.789805 42.3021004,27.789805 Z"/>
          <path fill="#EFF6FF" d="M54.5595747,51.4419998 L54.5595747,51.4419998 C61.5455227,51.4419998 67.2087526,57.1052297 67.2087526,64.0911778 L67.2087526,77.6696967 C67.2087526,81.1458162 64.3908009,83.9637678 60.9146814,83.9637678 L48.2044679,83.9637678 C44.7283484,83.9637678 41.9103967,81.1458162 41.9103967,77.6696967 L41.9103967,64.0911778 C41.9103967,57.1052297 47.5736266,51.4419998 54.5595747,51.4419998 Z"/>
          <rect width="13.2" height="34.806" x="21.331" y="34.417" fill="#ACC1D9" rx="6.6" transform="scale(-1 1) rotate(-30 0 156.061)"/>
          <g fill="#ACC1D9" transform="translate(30.82)">
            <path d="M11.0070249,0.599757108 L36.7262264,17.1685775 L8.49407135,17.9286058 L8.49407135,1.97013587 C8.49407135,1.06984086 9.22390465,0.340007559 10.1241997,0.340007559 C10.4373139,0.340007559 10.7438032,0.430184493 11.0070249,0.599757108 Z" transform="matrix(-1 0 0 1 45.22 0)"/>
            <path d="M2.59848515,0.599757108 L28.3176866,17.1685775 L0.0855316287,17.9286058 L0.0855316287,1.97013587 C0.0855316287,1.06984086 0.815364933,0.340007559 1.71565994,0.340007559 C2.02877415,0.340007559 2.3352635,0.430184493 2.59848515,0.599757108 Z"/>
          </g>
          <g transform="translate(21.153 6.998)">
            <path fill="#ACC1D9" d="M27.5240082,0 L27.5240082,0 C37.759998,-1.88032083e-15 47.0991194,5.83943186 51.5810378,15.0420345 L54.3155969,20.6568311 C56.0002213,24.1158251 54.5618106,28.2855517 51.1028166,29.9701761 C50.1525741,30.4329701 49.1094823,30.6734738 48.0525343,30.6734738 L6.99548211,30.6734738 C3.14806755,30.6734738 0.0291218077,27.554528 0.0291218077,23.7071135 C0.0291218077,22.6501654 0.269625439,21.6070737 0.732419466,20.6568311 L3.46697857,15.0420345 C7.94889701,5.83943186 17.2880184,1.88032083e-15 27.5240082,0 Z"/>
            <path fill="#97ABC2" d="M1.38156557 19.3239569L3.46697857 15.0420345C3.56921487 14.8321154 3.67397853 14.6239464 3.78122256 14.4175567L12.2086927 14.4175567C13.8381237 14.4175567 15.1590385 15.7384715 15.1590385 17.3679025L15.1590385 17.4016148C15.1590385 19.0310459 13.8381237 20.3519607 12.2086927 20.3519607L3.61974504 20.3519607C2.72464243 20.3519607 1.92264024 19.9533504 1.38156557 19.3239569zM1.72651979 28.2644994C.668959395 27.0428893.0291218077 25.4497224.0291218077 23.7071135.0291218077 23.2432119.0754522118 22.7819795.16657308 22.3300954L4.3764552 22.3300954C6.00588622 22.3300954 7.32680104 23.6510102 7.32680104 25.2804412L7.32680104 25.3141536C7.32680104 26.9435846 6.00588622 28.2644994 4.3764552 28.2644994L1.72651979 28.2644994zM54.8831703 22.3300954C55.2961833 24.3715501 54.7625732 26.4797075 53.4827829 28.0735148 52.3699341 27.6512297 51.5789427 26.5750646 51.5789427 25.3141536L51.5789427 25.2804412C51.5789427 23.6510102 52.8998576 22.3300954 54.5292886 22.3300954L54.8831703 22.3300954zM51.2667938 14.4175567C51.3740378 14.6239464 51.4788015 14.8321154 51.5810378 15.0420345L54.1671167 20.3519607 49.8299461 20.3519607C48.2005151 20.3519607 46.8796003 19.0310459 46.8796003 17.4016148L46.8796003 17.3679025C46.8796003 15.7384715 48.2005151 14.4175567 49.8299461 14.4175567L51.2667938 14.4175567zM30.6617668.184053215L30.6617668 1.53045827C30.6617668 3.15988929 29.340852 4.48080412 27.711421 4.48080412L27.6777086 4.48080412C26.0482776 4.48080412 24.7273628 3.15988929 24.7273628 1.53045827L24.7273628.146070647C25.6499512.0493311313 26.5831913 1.72825251e-16 27.5240082 0 28.5809434-1.94155857e-16 29.6283163.062259793 30.6617668.184053215z"/>
          </g>
          <path fill="#718092" d="M48.2697639 15.6060889L48.2697639 15.6060889C49.445805 15.6060889 50.3991747 16.5594586 50.3991747 17.7354997L50.3991747 21.6078519C50.3991747 22.783893 49.445805 23.7372627 48.2697639 23.7372627L48.2697639 23.7372627C47.0937228 23.7372627 46.1403531 22.783893 46.1403531 21.6078519L46.1403531 17.7354997C46.1403531 16.5594586 47.0937228 15.6060889 48.2697639 15.6060889zM58.5762764 15.6060889L58.5762764 15.6060889C59.7523175 15.6060889 60.7056872 16.5594586 60.7056872 17.7354997L60.7056872 21.6078519C60.7056872 22.783893 59.7523175 23.7372627 58.5762764 23.7372627L58.5762764 23.7372627C57.4002353 23.7372627 56.4468656 22.783893 56.4468656 21.6078519L56.4468656 17.7354997C56.4468656 16.5594586 57.4002353 15.6060889 58.5762764 15.6060889z"/>
          <path fill="#EFF6FF" d="M48.7565042,24.8031276 L59.4186917,24.8031276 C63.4737828,24.8031276 66.7610837,28.0904284 66.7610837,32.1455195 L66.7610837,32.1800033 C66.7610837,36.2350944 63.4737828,39.5223953 59.4186917,39.5223953 L48.7565042,39.5223953 C44.7014131,39.5223953 41.4141122,36.2350944 41.4141122,32.1800033 L41.4141122,32.1455195 C41.4141122,28.0904284 44.7014131,24.8031276 48.7565042,24.8031276 Z"/>
          <path fill="#FF8E8E" d="M57.9232371,25.2737414 L59.7639754,27.341805 C60.3625455,28.0142966 60.3026203,29.0446957 59.6301287,29.6432658 C59.3316295,29.9089534 58.9459362,30.0557403 58.5463217,30.0557403 L54.8481638,30.0557403 C53.9478688,30.0557403 53.2180355,29.325907 53.2180355,28.425612 C53.2180355,28.0234789 53.3666746,27.6355367 53.6353805,27.3363576 L55.4928002,25.268294 C56.0943788,24.5984923 57.1250361,24.5431866 57.7948378,25.1447652 C57.8400059,25.1853327 57.8828725,25.2283919 57.9232371,25.2737414 Z" transform="matrix(1 0 0 -1 0 54.776)"/>
        </g>
      </g>
    </g>
  </g>
</svg>
